<?xml version="1.0" encoding="iso-8859-1"?>
<!-- Generator: Adobe Illustrator 16.2.1, SVG Export Plug-In . SVG Version: 6.00 Build 0)  -->
<!DOCTYPE svg PUBLIC "-//W3C//DTD SVG 1.1//EN" "http://www.w3.org/Graphics/SVG/1.1/DTD/svg11.dtd">
<svg version="1.1" xmlns="http://www.w3.org/2000/svg" xmlns:xlink="http://www.w3.org/1999/xlink" x="0px" y="0px"
	 width="47.245px" height="43.902px" viewBox="0 0 47.245 43.902" style="enable-background:new 0 0 47.245 43.902;"
	 xml:space="preserve">
<g id="Layer_22">
	<path style="fill:#3DD1FF;stroke:#FFFFFF;stroke-width:0.1417;" d="M44.748,18.329c0,0,0-2.179-1.387-2.972
		c-1.389-0.793-3.171-0.991-3.171-0.991s-0.991-1.783-1.784-2.576c-0.477-0.476-9.75-6.674-17.378-11.719H16.28l2.654,24.9
		l0.885,0.885c0,0,0.126,2.15-0.378,2.402c-0.506,0.252-10.999,0.127-10.999,0.127s-1.01,0.505-1.769,0.505
		c-0.758,0-1.643-0.506-1.896-0.126c-0.252,0.379-0.252,1.391-1.517,0.252c-1.263-1.137-1.644-0.126-1.644,0.633
		c0,0.609-0.657,0.888-1.504,0.909c0.174,0.36,0.252,0.65,0.252,0.65l0.518,0.769c0,0-0.082,1.25,0.418,1.75s1.416,1.416,1.5,1.832
		c0.082,0.418,0,2.25,0,2.25s0.332,1.417,0.832,0.75c0.5-0.666,1.25,0.584,1.584-0.25c0.334-0.832,1.416,0.168,1.916,0.168
		s1.667-1.501,2-1.418c0.334,0.084,1.084,1.5,1.084,2.084s1.5,1.167,1,1.334c-0.5,0.166-0.584,1,0,1s0.333,1.082,0.666,1.582
		c0.334,0.5,1,0.918,1.334,0.168s1.083-0.084,1.416,0.416c0.334,0.5,1.418-0.084,1.584-0.75s1.5-0.916,1.416-0.166
		c-0.082,0.75,0.167,0.916,1,0.332c0.254-0.176,0.527-0.205,0.797-0.162c0.296-0.972,0.635-1.866,0.787-2.17
		c0.25-0.5-0.584-1.668-0.167-1.834s1.833,0.166,2.25-1s0.917-1.75,0.917-1.75s0.166-2.5,0.916-2.083s1.667,1.083,1.75,0.083
		c0.084-1,1-0.416,1.25-1.333s0.752-0.834,1.334-0.667c0.584,0.167,1.084-0.083,1.084-0.583s1.334-0.25,2.416-1
		c1.084-0.75,1.666-1.334,2.084-0.917c0.416,0.417,3.166,0.334,3.582,0.167c0.418-0.167,1.25-0.917,2.25-0.75
		s3.418-0.417,4.418-0.417s1.416-0.917,1.75-1.25c0.332-0.333,0.584-1.833,0.916-2.083c0.268-0.2,0.213-5.433,0.182-7.499
		C46.139,18.021,44.748,18.329,44.748,18.329z"/>
</g>
<g id="Layer_1">
</g>
</svg>
