<?xml version="1.0" encoding="iso-8859-1"?>
<!-- Generator: Adobe Illustrator 16.2.1, SVG Export Plug-In . SVG Version: 6.00 Build 0)  -->
<!DOCTYPE svg PUBLIC "-//W3C//DTD SVG 1.1//EN" "http://www.w3.org/Graphics/SVG/1.1/DTD/svg11.dtd">
<svg version="1.1" xmlns="http://www.w3.org/2000/svg" xmlns:xlink="http://www.w3.org/1999/xlink" x="0px" y="0px"
	 width="23.771px" height="19.335px" viewBox="0 0 23.771 19.335" style="enable-background:new 0 0 23.771 19.335;"
	 xml:space="preserve">
<g id="Layer_24">
	<path style="fill:#238CC3;stroke:#FFFFFF;stroke-width:0.1417;" d="M11.193,14.854c0-0.643,2.94-1.469,2.94-2.111
		c0-0.645,0-7.535,0-7.535s9.188,0.184,9.463,0c0.143-0.094,0.113-2.092,0.064-4.057c-0.35-0.592,0.152-1.08-2.023-1.08
		c-1.777,0-6.975,0-10.477,0c-0.804,0.754-1.237,1.77-1.544,2.585c-0.5,1.333-3.625,3.292-3.75,5.167s-3.043,4.791-4.959,8.791
		c-0.527,1.104-0.768,1.959-0.829,2.65h11.115C11.193,19.264,11.193,15.498,11.193,14.854z"/>
</g>
<g id="Layer_1">
</g>
</svg>
