<?xml version="1.0" encoding="iso-8859-1"?>
<!-- Generator: Adobe Illustrator 16.2.1, SVG Export Plug-In . SVG Version: 6.00 Build 0)  -->
<!DOCTYPE svg PUBLIC "-//W3C//DTD SVG 1.1//EN" "http://www.w3.org/Graphics/SVG/1.1/DTD/svg11.dtd">
<svg version="1.1" xmlns="http://www.w3.org/2000/svg" xmlns:xlink="http://www.w3.org/1999/xlink" x="0px" y="0px" width="8.962px"
	 height="21.598px" viewBox="0 0 8.962 21.598" style="enable-background:new 0 0 8.962 21.598;" xml:space="preserve">
<g id="Layer_3">
	<path style="fill:#D2672C;stroke:#FFFFFF;stroke-width:0.1417;" d="M8.555,14.241c-0.379-0.461-1.092-1.111-1.709-1.645
		c0.014,0.205-0.01,0.37-0.084,0.478c-0.732,1.06-2.812-2.25-3.062-4.313s1.188-3.062,0.312-5c-0.73-1.619-1.186-3.179-0.664-3.652
		c-0.477-0.06-1.285-0.038-1.898-0.007C1.904,0.857,2.564,2.35,2.564,2.854c0,0.576-0.721-0.144-1.01,0.576
		C1.268,4.152,1.123,7.469,1.699,8.046c0.578,0.577-1.154,0.145-1.154,0.722s-0.143,2.596-0.432,2.74
		c-0.162,0.081,0.172,0.574,0.498,1.24c0.006-0.002,0.023-0.007,0.025-0.007c0.25,0,1.418,1.416,1.918,1.333s2-0.833,2.25,0.334
		c0.25,1.166-0.75,3.166-0.584,3.666s2.416,3.834,2.584,3.417c0.166-0.417-0.5-1.917,0.25-2.583c0.75-0.667,1.666,0.166,1.582-1.834
		C8.555,15.074,9.305,15.158,8.555,14.241z"/>
</g>
<g id="Layer_1">
</g>
</svg>
