<?xml version="1.0" encoding="iso-8859-1"?>
<!-- Generator: Adobe Illustrator 16.2.1, SVG Export Plug-In . SVG Version: 6.00 Build 0)  -->
<!DOCTYPE svg PUBLIC "-//W3C//DTD SVG 1.1//EN" "http://www.w3.org/Graphics/SVG/1.1/DTD/svg11.dtd">
<svg version="1.1" xmlns="http://www.w3.org/2000/svg" xmlns:xlink="http://www.w3.org/1999/xlink" x="0px" y="0px"
	 width="23.229px" height="15.854px" viewBox="0 0 23.229 15.854" style="enable-background:new 0 0 23.229 15.854;"
	 xml:space="preserve">
<g id="Layer_21">
	<path style="fill:#2CA3D7;stroke:#FFFFFF;stroke-width:0.1417;" d="M23.125,9.098c-0.424-0.396-0.994-0.513-1.143-0.513
		c-0.25,0-0.062-1.375-0.188-1.562s-0.938,0.375-1.438,0.188s-0.687-1-1.124-1s-0.5-0.5-0.5-1.062s-0.812-1.125-1.312-1.5
		s-0.625-1.438-0.938-1.625c-0.18-0.108-0.11-0.877-0.02-1.512c-0.777-0.013-1.547-0.096-1.752-0.301
		c-0.416-0.417-1,0.167-2.083,0.917c-1.083,0.75-2.417,0.5-2.417,1s-0.5,0.75-1.083,0.583S8.044,2.46,7.794,3.377
		S6.628,3.71,6.544,4.71c-0.083,1-1,0.334-1.75-0.083S3.878,6.71,3.878,6.71s-0.5,0.584-0.917,1.75s-1.833,0.834-2.25,1
		s0.417,1.334,0.167,1.834c-0.152,0.304-0.491,1.198-0.787,2.17c0.617,0.1,1.196,0.622,1.371,0.912c0.25,0.418,1.75,2.001,2.5,1.168
		c0.75-0.834,2.832-0.918,3.332-0.418s0.834,0.251,0.918-0.249c0.082-0.5-0.834-2.333-0.5-2.833c0.332-0.5,6.833-0.251,7.083,0.166
		s0.25-0.834,1.084-0.75s2.084,0.5,2.584,0.334c0.5-0.167,1.082-1.084,1.582-1.084s2-0.084,2.334-0.5s0.916-0.416,0.75-1.083
		C23.127,9.117,23.127,9.106,23.125,9.098z"/>
</g>
<g id="Layer_1">
</g>
</svg>
