<?xml version="1.0" encoding="iso-8859-1"?>
<!-- Generator: Adobe Illustrator 16.2.1, SVG Export Plug-In . SVG Version: 6.00 Build 0)  -->
<!DOCTYPE svg PUBLIC "-//W3C//DTD SVG 1.1//EN" "http://www.w3.org/Graphics/SVG/1.1/DTD/svg11.dtd">
<svg version="1.1" xmlns="http://www.w3.org/2000/svg" xmlns:xlink="http://www.w3.org/1999/xlink" x="0px" y="0px"
	 width="43.639px" height="34.194px" viewBox="0 0 43.639 34.194" style="enable-background:new 0 0 43.639 34.194;"
	 xml:space="preserve">
<g id="Layer_20">
	<path style="fill:#238CC3;stroke:#FFFFFF;stroke-width:0.1417;" d="M41.829,5.057c0-0.408-0.094-2.252-0.166-3.621l-2.235,1.211
		c0,0-0.595-0.991-1.783-1.783c-1.188-0.793-4.161-0.793-4.161-0.793L21.396,7.6l-5.151,4.162c0,0-3.369,1.188-4.359,1.387
		c-0.115,0.022-0.243,0.049-0.375,0.076c0.031,2.066,0.086,7.299-0.182,7.5c-0.333,0.25-0.584,1.75-0.917,2.083
		s-0.75,1.25-1.75,1.25s-3.417,0.584-4.417,0.417s-1.833,0.583-2.25,0.75c-0.211,0.085-1.026,0.147-1.832,0.134
		c-0.09,0.635-0.16,1.403,0.02,1.512c0.312,0.188,0.438,1.25,0.938,1.625s1.312,0.938,1.312,1.5s0.062,1.062,0.5,1.062
		s0.625,0.812,1.125,1s1.313-0.375,1.438-0.188s-0.062,1.562,0.188,1.562c0.149,0,0.719,0.117,1.143,0.513
		c-0.15-0.665,0.181-1.551,1.004-1.304c0.834,0.25,0.166,1,0.916,1.333s1.168,0.083,1.168-0.5s1-1.75,1.25-2s0.166-1.833,0.666-2.25
		s2-0.083,2.584,0c0.582,0.083,1-1.167,1.666-0.583c0.666,0.583,1.75,0.082,2.25,0.666s0.75,2,1.584,1.5
		c0.832-0.5,1.832-0.666,2.332-0.666s1.668,0.999,2.168,1.166s2.166,0.333,2.75,0c0.582-0.333,1.332-1.416,2.082-1.333
		s3.084-0.167,3.584,0.083s1.584,0.834,2.334,0.584s1.416-1.668,2-1.834c0.184-0.053,0.302-0.043,0.401-0.008
		c0.009-0.324,0.015-0.636,0.015-0.908c0-1.5,0.334-0.918,0.584-2.418s4.166-5.416,4.5-5.666s0.332-6.167,0.332-7s0.168-1.834,0.5-3
		c0.334-1.166-0.582-1.084-0.5-2.166C43.079,6.557,41.829,5.723,41.829,5.057z"/>
</g>
<g id="Layer_1">
</g>
</svg>
