<?xml version="1.0" encoding="iso-8859-1"?>
<!-- Generator: Adobe Illustrator 16.2.1, SVG Export Plug-In . SVG Version: 6.00 Build 0)  -->
<!DOCTYPE svg PUBLIC "-//W3C//DTD SVG 1.1//EN" "http://www.w3.org/Graphics/SVG/1.1/DTD/svg11.dtd">
<svg version="1.1" xmlns="http://www.w3.org/2000/svg" xmlns:xlink="http://www.w3.org/1999/xlink" x="0px" y="0px"
	 width="20.527px" height="40.161px" viewBox="0 0 20.527 40.161" style="enable-background:new 0 0 20.527 40.161;"
	 xml:space="preserve">
<g id="Layer_8">
	<path style="fill:#D2672C;stroke:#FFFFFF;stroke-width:0.1417;" d="M17.342,0.565c-0.373-1.367-0.668,0.5-1,0.833
		c-0.334,0.334-0.5,1.334-0.418,2c0.084,0.667-1,1.334-1.666,1.25c-0.666-0.083-1.75,0.334-1.416,1.25
		c0.332,0.917-0.5,0.75-0.084,1.5s-0.916,1.667-2.084,1.75c-1.166,0.084-2.666,2.167-3.916,2c-1.25-0.166-2.5,0.834-3.584,0.667
		s-0.334,2.25-1.166,3.75c-0.834,1.5-0.418,3.25,0.332,5.083c0.75,1.834,1.334,3.334-0.666,5.75c-2,2.417-1.834,5.084-1.084,6.75
		c0.75,1.667,0.75,4.167,1.834,5.334c1.084,1.166,4.084,2.166,5,1.25c0.916-0.917,1.881,0.125,2.916-1.084
		c1-1.166,2.668-7.583,4.084-11.833s3.25-9.833,3.084-11s1-1.917,0.5-3.167s0.166-2.75,0.75-1.75s1.416,1,1.666-0.333
		c0.25-1.334-1-3.417-1.082-5.333C19.258,3.315,17.592,1.482,17.342,0.565z"/>
</g>
<g id="Layer_1">
</g>
</svg>
