<?xml version="1.0" encoding="iso-8859-1"?>
<!-- Generator: Adobe Illustrator 16.2.1, SVG Export Plug-In . SVG Version: 6.00 Build 0)  -->
<!DOCTYPE svg PUBLIC "-//W3C//DTD SVG 1.1//EN" "http://www.w3.org/Graphics/SVG/1.1/DTD/svg11.dtd">
<svg version="1.1" xmlns="http://www.w3.org/2000/svg" xmlns:xlink="http://www.w3.org/1999/xlink" x="0px" y="0px"
	 width="42.778px" height="41.336px" viewBox="0 0 42.778 41.336" style="enable-background:new 0 0 42.778 41.336;"
	 xml:space="preserve">
<g id="Layer_38">
	<path style="fill:#1A76AF;stroke:#FFFFFF;stroke-width:0.1417;" d="M4.785,2.467C4.494,2.592,2.994,4.174,2.619,4.508
		s-0.417,0.916-0.25,1.25s-0.125,1.541-0.5,2.25S0.16,9.217,0.077,9.633s0.75,1.375,1.292,2.584
		c0.542,1.208-0.542,2.041-0.084,2.957c0.459,0.917,0.209,1.418-0.208,1.918s0,1.291,0,1.75c0,0.458,0.583,1.125,0.417,1.291
		c-0.167,0.166-1.223,0.978-1.223,1.393c0,0.416,0.623,0.832,1.246,1.767c0.624,0.936,0.209,1.455,0.312,2.184
		c0.104,0.729,1.144,1.143,1.975,1.143c0.832,0,1.352,0.625,2.08,0.625c0.646,0,1.047,1.07,1.42,2.402
		c0.311,0.004,3.009,0.047,4.13,0.793c1.188,0.793,1.783,1.783,1.783,1.783l4.754-2.576l21.514,11.57v-1.492h2.607
		c0,0,0-25.722,0-27.634s-0.869-3.128,0-4.171s-0.348-1.564,0.348-3.476c0.082-0.227,0.168-0.462,0.258-0.701
		c-0.027-0.037-0.066-0.071-0.08-0.109c-0.209-0.583-1.334-0.625-3.791-1c-2.459-0.375-1.543-2.041-4.293-2.208
		s-6.25,2.042-6.291,3.208C28.202,4.8,29.534,6.092,28.618,7.3s-2.916,1.333-4.334,0.042c-1.416-1.292-3.5-1.875-5.207-1.875
		c-1.709,0-2.918-1.084-2.793-2c0.125-0.917-0.416-1.334-1.832-1.625C13.035,1.55,11.827,0.383,9.327,0.8
		C7.99,1.024,6.855,0.624,6.077,0.122c-0.058,0.545-0.1,1.105-0.083,1.471C6.036,2.508,5.077,2.342,4.785,2.467z"/>
</g>
<g id="Layer_1">
</g>
</svg>
