<?xml version="1.0" encoding="iso-8859-1"?>
<!-- Generator: Adobe Illustrator 16.2.1, SVG Export Plug-In . SVG Version: 6.00 Build 0)  -->
<!DOCTYPE svg PUBLIC "-//W3C//DTD SVG 1.1//EN" "http://www.w3.org/Graphics/SVG/1.1/DTD/svg11.dtd">
<svg version="1.1" xmlns="http://www.w3.org/2000/svg" xmlns:xlink="http://www.w3.org/1999/xlink" x="0px" y="0px" width="33.39px"
	 height="27.284px" viewBox="0 0 33.39 27.284" style="enable-background:new 0 0 33.39 27.284;" xml:space="preserve">
<g id="Layer_33">
	<path style="fill:#2CA3D7;stroke:#FFFFFF;stroke-width:0.1417;" d="M20.6,19.977c0.334-0.084,1.083,0.166,1.666-0.25
		c0.584-0.418,1.834,0.582,2,1.416c0.168,0.834,0.668-0.334,1.168-1.25s2.082-3.667,2.082-4.334c0-0.666,1.334-1.25,1.334-1.666
		s-0.083-1.334,0.334-1.5c0.416-0.166,0.75-1.417,0.666-1.834c-0.084-0.416,1.416-2.749,1.666-3.082
		c0.25-0.334,1.584-0.168,1.668-0.918c0.082-0.75,0.332-1.583-0.168-1.75c-0.5-0.166-1.166-0.75-1.166-1.166
		c0-0.235,0.031-0.92,0.174-1.52c-0.668-0.094-0.703-0.76-1.091-1.146c-0.417-0.417-0.417-0.75-0.999-0.584
		c-0.584,0.166-1.25,1.584-2,1.834S26.1,1.893,25.6,1.643s-2.834,0-3.584-0.083s-1.5,1-2.082,1.333c-0.584,0.333-2.25,0.167-2.75,0
		s-1.668-1.166-2.168-1.166s-1.5,0.166-2.332,0.666c-0.834,0.5-1.084-0.916-1.584-1.5S9.516,0.81,8.85,0.227
		C8.184-0.357,7.766,0.893,7.184,0.81C6.6,0.727,5.1,0.393,4.6,0.81s-0.416,2-0.666,2.25s-1.25,1.417-1.25,2
		c0,0.269-0.099,0.456-0.268,0.56c0.111,0.691,0.252,1.573,0.287,1.898c0.062,0.562,0.312,3.375-0.312,4s-1.063,1.625-1.063,1.625
		s-1,0.688-1.187,2.062c-0.188,1.375,0.062,2.25,0.062,3.312c0,0.75,0.556,1.291,0.864,2.222c0.011,0.013,0.023,0.014,0.033,0.028
		c0.5,0.667,2.875,0.792,4.207,1.084c1.334,0.291,2.709,2.166,2.668,2.875c-0.041,0.708,0.875,2.083,1.5,2.416
		c0.625,0.334,2.166-0.625,2.875-0.625c0.708,0,3.25,0.042,3.75-0.416c0.146-0.135,0.297-0.119,0.451-0.023
		c0.602-1.603,0.82-3.022,0.82-3.022S20.266,20.06,20.6,19.977z"/>
</g>
<g id="Layer_1">
</g>
</svg>
