<?xml version="1.0" encoding="iso-8859-1"?>
<!-- Generator: Adobe Illustrator 16.2.1, SVG Export Plug-In . SVG Version: 6.00 Build 0)  -->
<!DOCTYPE svg PUBLIC "-//W3C//DTD SVG 1.1//EN" "http://www.w3.org/Graphics/SVG/1.1/DTD/svg11.dtd">
<svg version="1.1" xmlns="http://www.w3.org/2000/svg" xmlns:xlink="http://www.w3.org/1999/xlink" x="0px" y="0px" width="5.554px"
	 height="4.752px" viewBox="0 0 5.554 4.752" style="enable-background:new 0 0 5.554 4.752;" xml:space="preserve">
<g id="Layer_43">
	<path style="fill:#FFF066;stroke:#FFFFFF;stroke-width:0.1417;" d="M4.565,0.086C3.944,0.26,3.282,0.461,3.008,0.598
		c-0.4,0.2-0.607,0.325-1.406,0.243C1.506,0.959,1.397,1.058,1.258,1.107C0.571,1.357,0.696,2.92,0.696,2.92
		S0.071,2.982,0.071,3.732c0,0.509,0.344,0.727,0.564,0.816c0.354,0.014,0.676,0.04,0.93,0.086C3.153,4.924,3.008,3.77,3.008,3.77
		S5.317,3.914,5.46,3.193c0.145-0.722-0.432-1.875-0.432-1.875L4.565,0.086z"/>
</g>
<g id="Layer_1">
</g>
</svg>
