<?xml version="1.0" encoding="iso-8859-1"?>
<!-- Generator: Adobe Illustrator 16.2.1, SVG Export Plug-In . SVG Version: 6.00 Build 0)  -->
<!DOCTYPE svg PUBLIC "-//W3C//DTD SVG 1.1//EN" "http://www.w3.org/Graphics/SVG/1.1/DTD/svg11.dtd">
<svg version="1.1" xmlns="http://www.w3.org/2000/svg" xmlns:xlink="http://www.w3.org/1999/xlink" x="0px" y="0px"
	 width="12.137px" height="18.331px" viewBox="0 0 12.137 18.331" style="enable-background:new 0 0 12.137 18.331;"
	 xml:space="preserve">
<g id="Layer_28">
	<path style="fill:#3DD1FF;stroke:#FFFFFF;stroke-width:0.1417;" d="M10.261,7.544c-0.374-0.938-0.124-3-0.062-3.938
		c0.062-0.938-0.25-1.438-0.688-1.688C9.276,1.786,9.08,0.899,8.946,0.103C8.449,0.33,8.409,1.144,8.199,0.794
		c-0.25-0.417-6.75-0.666-7.082-0.166c-0.334,0.5,0.582,2.333,0.5,2.833c-0.051,0.298-0.19,0.503-0.4,0.517
		C1.908,5.519,2.199,7.88,2.199,8.357c0,0.625-1.125,1.125-1.062,1.875c0.062,0.75-1,2.25-1.062,2.75
		c-0.063,0.5,0.812,2.625,1.187,3.125c0.19,0.25,0.094,0.848-0.048,1.381c1.135,0.328,1.883,0.707,2.111,0.766
		c0.5,0.125,4.041-1.5,5.459-2.209c1.134-0.566,2.394-0.922,3.259-1.383c-0.52-1.014-1.031-2.346-1.031-3.242
		C11.011,9.982,10.637,8.482,10.261,7.544z"/>
</g>
<g id="Layer_1">
</g>
</svg>
