<?xml version="1.0" encoding="iso-8859-1"?>
<!-- Generator: Adobe Illustrator 16.2.1, SVG Export Plug-In . SVG Version: 6.00 Build 0)  -->
<!DOCTYPE svg PUBLIC "-//W3C//DTD SVG 1.1//EN" "http://www.w3.org/Graphics/SVG/1.1/DTD/svg11.dtd">
<svg version="1.1" xmlns="http://www.w3.org/2000/svg" xmlns:xlink="http://www.w3.org/1999/xlink" x="0px" y="0px" width="8.031px"
	 height="4.834px" viewBox="0 0 8.031 4.834" style="enable-background:new 0 0 8.031 4.834;" xml:space="preserve">
<g id="Layer_35">
	<path style="fill:#238CC3;stroke:#FFFFFF;stroke-width:0.1417;" d="M4.215,4.438C4.84,4.001,6.09,2.876,6.527,3.063
		s1-0.188,1-0.438S6.652,1.563,7.34,1.313c0.473-0.172,0.588-0.72,0.617-1.051c-0.248-0.12-0.506-0.209-0.711-0.189
		c-0.58,0.053-4.111,0.315-4.111,0.315S2.08,1.074,1.554,1.021c-0.442-0.044-0.003-0.751-1.43-0.39
		c0.714,0.891,0.808,1.336,2.259,1.744C4.007,2.834,2.257,3.668,3.59,4.501c0.125,0.078,0.223,0.157,0.322,0.236
		C4.037,4.598,4.145,4.488,4.215,4.438z"/>
</g>
<g id="Layer_1">
</g>
</svg>
