<?xml version="1.0" encoding="iso-8859-1"?>
<!-- Generator: Adobe Illustrator 16.2.1, SVG Export Plug-In . SVG Version: 6.00 Build 0)  -->
<!DOCTYPE svg PUBLIC "-//W3C//DTD SVG 1.1//EN" "http://www.w3.org/Graphics/SVG/1.1/DTD/svg11.dtd">
<svg version="1.1" xmlns="http://www.w3.org/2000/svg" xmlns:xlink="http://www.w3.org/1999/xlink" x="0px" y="0px"
	 width="18.901px" height="16.404px" viewBox="0 0 18.901 16.404" style="enable-background:new 0 0 18.901 16.404;"
	 xml:space="preserve">
<g id="Layer_12">
	<path style="fill:#1A76AF;stroke:#FFFFFF;stroke-width:0.1417;" d="M3.174,2.627C2.651,3.151,1.432,3.325,1.606,4.196
		S1.432,5.938,0.561,6.984c-0.867,1.039-0.355,2.595-0.178,3.812c1.051-0.074,2.141-0.094,2.357,0.123
		c0.439,0.439,0.615,0,0.879-0.879c0.264-0.878,0.791-0.79,1.318-0.351c0.525,0.439,0.877,1.142,1.756,0.702s0.791-0.176,1.23,0
		s2.195-0.088,2.81,0s5.975,5.799,5.975,5.799s-0.014,0.021-0.037,0.061c0.678,0.075,1.141,0.179,1.348-0.099
		c0.088-0.116,0.391-0.313,0.764-0.53c-0.684-0.645-1.68-1.698-3.002-3.367c-1.584-2-3.459-3.083-4.459-3.083
		s-1.166-1.708-1.791-1.792C8.907,7.296,7.491,4.838,7.448,3.254c-0.023-0.892-0.764-2.131-1.58-3.133
		C4.874,1.708,3.543,2.258,3.174,2.627z"/>
</g>
<g id="Layer_1">
</g>
</svg>
