<?xml version="1.0" encoding="iso-8859-1"?>
<!-- Generator: Adobe Illustrator 16.2.1, SVG Export Plug-In . SVG Version: 6.00 Build 0)  -->
<!DOCTYPE svg PUBLIC "-//W3C//DTD SVG 1.1//EN" "http://www.w3.org/Graphics/SVG/1.1/DTD/svg11.dtd">
<svg version="1.1" xmlns="http://www.w3.org/2000/svg" xmlns:xlink="http://www.w3.org/1999/xlink" x="0px" y="0px" width="5.039px"
	 height="5.529px" viewBox="0 0 5.039 5.529" style="enable-background:new 0 0 5.039 5.529;" xml:space="preserve">
<g id="Layer_13">
	<path style="fill:#3DD1FF;stroke:#FFFFFF;stroke-width:0.1417;" d="M1.788,0.716C1.626,0.981,0.956,2.062,0.419,2.675
		c-0.615,0.703-0.264,2.021-0.088,2.373C0.507,5.398,1.386,5.312,1.913,4.96C2.321,4.687,2.63,4.844,3.241,5.421
		C3.56,4.958,4.003,4.444,4.407,4.028c-0.697-0.404-1.34-0.473-1.51-0.642C2.606,3.095,3.731,2.262,4.522,2.095
		s0.416-1.083-0.25-1.666C4.163,0.331,4.036,0.214,3.899,0.087c-0.373,0.217-0.676,0.414-0.764,0.53
		C2.929,0.895,2.466,0.791,1.788,0.716z"/>
</g>
<g id="Layer_1">
</g>
</svg>
