<?xml version="1.0" encoding="iso-8859-1"?>
<!-- Generator: Adobe Illustrator 16.2.1, SVG Export Plug-In . SVG Version: 6.00 Build 0)  -->
<!DOCTYPE svg PUBLIC "-//W3C//DTD SVG 1.1//EN" "http://www.w3.org/Graphics/SVG/1.1/DTD/svg11.dtd">
<svg version="1.1" xmlns="http://www.w3.org/2000/svg" xmlns:xlink="http://www.w3.org/1999/xlink" x="0px" y="0px"
	 width="21.207px" height="15.931px" viewBox="0 0 21.207 15.931" style="enable-background:new 0 0 21.207 15.931;"
	 xml:space="preserve">
<g id="Layer_27">
	<path style="fill:#2CA3D7;stroke:#FFFFFF;stroke-width:0.1417;" d="M7.217,8.65C7.28,7.963,7.843,8.213,8.53,8.338
		C9.217,8.463,10.03,7.9,10.655,7.9s2.25,2.188,2.25,2.812S12.967,11.9,13.28,12.4c0.041,0.064,0.067,0.13,0.088,0.195
		c1.008-0.23,1.842-0.354,2.037-0.354c0.307,0,0.922,1.476,0.799,2.398c-0.123,0.922,0.922,1.598,1.354,0.983
		c0.43-0.614,0.983-1.415,1.106-0.86c0.035,0.164,0.267,0.305,0.56,0.424c0.154-0.367,0.491-0.51,0.743-0.85
		c0.376-0.5-0.562-1.062-0.25-1.688c0.313-0.625,0.876,0.25,1.313-0.188c0.437-0.438-0.625-1.375-0.5-1.75s0.062-1-0.5-1.312
		c-0.464-0.258-0.205-1.321,0.005-2.248c-0.144-0.106-0.278-0.246-0.38-0.398c-0.333-0.5-0.082-1.582-0.666-1.582s-0.5-0.834,0-1
		c0.5-0.167-1-0.75-1-1.334s-0.75-2-1.084-2.084c-0.333-0.083-1.5,1.418-2,1.418s-1.582-1-1.916-0.168
		c-0.334,0.834-1.084-0.416-1.584,0.25c-0.5,0.667-0.832-0.75-0.832-0.75s0.008-0.196,0.018-0.465
		c-0.104,0.037-0.204,0.074-0.311,0.111c-1.438,0.5-4,0.188-4.125-0.25s-2-0.812-2-0.812S4.218,1.15,3.53,1.4
		s0.188,1.062,0.188,1.312s-0.562,0.625-1,0.438S1.03,4.088,0.405,4.525c-0.07,0.05-0.178,0.159-0.303,0.299
		C1.068,5.6,0.981,6.465,2.114,7.297c1.046,0.766,2.375,1.804,3.174,3.461C6.096,10.073,7.175,9.119,7.217,8.65z"/>
</g>
<g id="Layer_1">
</g>
</svg>
