<?xml version="1.0" encoding="iso-8859-1"?>
<!-- Generator: Adobe Illustrator 16.2.1, SVG Export Plug-In . SVG Version: 6.00 Build 0)  -->
<!DOCTYPE svg PUBLIC "-//W3C//DTD SVG 1.1//EN" "http://www.w3.org/Graphics/SVG/1.1/DTD/svg11.dtd">
<svg version="1.1" xmlns="http://www.w3.org/2000/svg" xmlns:xlink="http://www.w3.org/1999/xlink" x="0px" y="0px"
	 width="32.596px" height="28.499px" viewBox="0 0 32.596 28.499" style="enable-background:new 0 0 32.596 28.499;"
	 xml:space="preserve">
<g id="Layer_44">
	<path style="fill:#E8AB49;stroke:#FFFFFF;stroke-width:0.1417;" d="M25.024,1.254c-0.377,0-1.27-0.594-2.035-1.159
		C22.446,0.7,20.536,0.6,19.597,0.6c-1,0-0.125,1.375-0.75,1.875s-0.875,1.25-0.375,1.5S18.347,6.35,18.347,7.1
		s-1,2.375-0.625,2.625s1,2,1.875,2.25s1.5-0.625,1.875-0.625s0.375,1.125,0.375,2s-0.5,1.25-0.5,1.25s-1.375,0.5-2,0
		s-1.125-1.875-1.125-2.375s-1.5-0.5-2.125-0.5s-1.25-1.125-1.5-1.625s-1,0.125-1,0.5s-0.625,0.375-1.25,0.375s-1.875-1-2.375-0.75
		s-1-0.875-0.875-1.375s-1.25-0.125-1.75,0.125S6.597,8.35,6.597,8.35S6.31,7.848,5.858,7.629l-0.596,5.598l-0.721,0.721
		L0.36,13.803L0.071,23.18l3.213,4.395c1.676-0.342,5.148-0.821,5.148-0.238c0,0.177,0.088,0.406,0.227,0.651
		c0.584-0.14,1.135-0.259,1.438-0.222c0.668,0.084,2.918,0.918,3.584,0.584s1.834-2.833,2.916-3.166c1.084-0.334,2.584-1.5,2.584-2
		s0-1.001,1.584-1.418l2.418-0.077l0.164-0.005L22.765,19.6c0,0,7.385-2.76,7.807-2.826c-0.326-0.666-0.66-1.158-0.498-1.239
		c0.289-0.145,0.432-2.163,0.432-2.74s1.732-0.145,1.154-0.722c-0.576-0.577-0.432-3.895-0.145-4.616c0.289-0.72,1.01,0,1.01-0.576
		c0-0.577-0.865-2.452-1.297-3.028c-0.312-0.416-2.885-1.443-3.607-1.588C26.899,2.12,25.745,1.254,25.024,1.254z"/>
</g>
<g id="Layer_1">
</g>
</svg>
