<?xml version="1.0" encoding="iso-8859-1"?>
<!-- Generator: Adobe Illustrator 16.2.1, SVG Export Plug-In . SVG Version: 6.00 Build 0)  -->
<!DOCTYPE svg PUBLIC "-//W3C//DTD SVG 1.1//EN" "http://www.w3.org/Graphics/SVG/1.1/DTD/svg11.dtd">
<svg version="1.1" xmlns="http://www.w3.org/2000/svg" xmlns:xlink="http://www.w3.org/1999/xlink" x="0px" y="0px"
	 width="34.782px" height="24.334px" viewBox="0 0 34.782 24.334" style="enable-background:new 0 0 34.782 24.334;"
	 xml:space="preserve">
<g id="Layer_34">
	<path style="fill:#3DD1FF;stroke:#FFFFFF;stroke-width:0.1417;" d="M32.076,13.719c0-0.521,0.002-1.043-1.041-1.912
		s-1.738-1.043-1.738-1.564s-0.348-0.695-1.217-1.738s-2.26-1.043-2.26-1.043l-0.348-0.869l-1.217-0.174
		c0,0-0.695-0.521,0.348-1.042s0-1.913-0.174-2.434c-0.15-0.454-1.619-2.224-1.996-2.674c-0.186-0.007-0.359-0.035-0.488-0.108
		c-0.582-0.334-1.75,0.333-2.332,0.916c-0.584,0.583-0.168,0.917-0.584,1.334c-0.416,0.416-1.834,1.666-2.75,2.833
		s-3.25,0.417-4,0.833s0.334,1.084-0.166,1.5s-2,1.084-2.5,1.334s-2.5,0.166-3.084,0.916c-0.582,0.75-1.25-0.833-1.834,0
		c-0.582,0.833-1.25,0.917-1.582,0.667c-0.08-0.059-0.162-0.162-0.248-0.295c-0.541,0.499-1.201,1.062-1.419,1.753
		c-0.375,1.188-1.375,2.25-1.375,2.812s0.375,1.312,0.375,2.312s0.25,1.5,0.812,2.25c0.563,0.75,0.438,1.688,0.438,1.688
		s0.187,0.375,0.625,0.938s1.688,1.375,1.812,1.812c0.059,0.2,0.271,0.358,0.486,0.475c0.055-0.094,0.109-0.188,0.172-0.266
		c0.695-0.869,0.521-2.086,0.521-2.086l1.562-0.348l1.217-0.348l2.434,0.348v-1.912c0,0,1.738-2.259,2.955-2.259
		s2.26,1.563,2.26,1.563l5.387,1.042c0,0,0.35-1.562,0.869-1.91c0.521-0.348,1.564,0.348,2.26,0s1.738-0.869,2.955-0.869
		s1.738,0.695,2.26-0.348s3.127,0.348,3.127,0.348l2.086-0.348l-0.695-1.738C33.988,15.108,32.076,14.24,32.076,13.719z"/>
</g>
<g id="Layer_1">
</g>
</svg>
