<?xml version="1.0" encoding="iso-8859-1"?>
<!-- Generator: Adobe Illustrator 16.2.1, SVG Export Plug-In . SVG Version: 6.00 Build 0)  -->
<!DOCTYPE svg PUBLIC "-//W3C//DTD SVG 1.1//EN" "http://www.w3.org/Graphics/SVG/1.1/DTD/svg11.dtd">
<svg version="1.1" xmlns="http://www.w3.org/2000/svg" xmlns:xlink="http://www.w3.org/1999/xlink" x="0px" y="0px"
	 width="33.129px" height="34.817px" viewBox="0 0 33.129 34.817" style="enable-background:new 0 0 33.129 34.817;"
	 xml:space="preserve">
<g id="Layer_45">
	<path style="fill:#DD893A;stroke:#FFFFFF;stroke-width:0.1417;" d="M1.946,32.172c0.705,0,0.281,0.985,1.269,0.563
		c0.987-0.422,1.832-0.423,2.678,0.141c0.845,0.564,1.549,0.705,2.536,0.705s9.724,0,9.724,0l0.986,0.986c0,0,5.355-0.423,6.201,0
		s3.521,0,4.367-0.281c0.146-0.049,0.422-0.114,0.771-0.186l-3.213-4.395l0.289-9.377l4.182,0.145l0.721-0.721l0.596-5.598
		c-0.219-0.106-0.475-0.152-0.762-0.029c-0.875,0.375-1.625,0.25-2.5,0.25s-1,0.875-1.5,0.75s-0.125-1.625,0-2.25
		s-0.75-1.75-1.375-2.25s0.75-3.625,0.375-4s-0.5-1.375-0.5-2.25s-0.625-0.375-1.875-0.375s-1.375-0.625-1.375-0.625
		s-1.5-0.375-2.25,0s-0.625,2.625-1.125,2.5s-2,0.125-3.25,0.5c-1.25,0.375-1.75-0.25-2.375-1.75s-1.375-1-1.125-2.125
		s-0.5-2.375-0.5-2.375s-8.25-0.125-9.125,0C3.436,0.177,2.813,0.559,2.198,0.993C2.71,2.917,4.31,6.122,4.667,6.876
		c0.375,0.792-0.459,1.5-0.459,2.959c0,1.458,1.584,4.125,1.75,5.916c0.168,1.792-1,2.917-2,4.084c-1,1.166-2.041,3.791-2.041,5.416
		s-1.5,3.209-1.459,3.959c0.043,0.75-0.207,2.958-0.374,3.791c-0.007,0.032-0.002,0.073-0.005,0.107l0.881-0.232
		C0.96,32.876,1.242,32.172,1.946,32.172z"/>
</g>
<g id="Layer_1">
</g>
</svg>
