<?xml version="1.0" encoding="iso-8859-1"?>
<!-- Generator: Adobe Illustrator 16.2.1, SVG Export Plug-In . SVG Version: 6.00 Build 0)  -->
<!DOCTYPE svg PUBLIC "-//W3C//DTD SVG 1.1//EN" "http://www.w3.org/Graphics/SVG/1.1/DTD/svg11.dtd">
<svg version="1.1" xmlns="http://www.w3.org/2000/svg" xmlns:xlink="http://www.w3.org/1999/xlink" x="0px" y="0px"
	 width="22.902px" height="27.68px" viewBox="0 0 22.902 27.68" style="enable-background:new 0 0 22.902 27.68;"
	 xml:space="preserve">
<g id="Layer_10">
	<path style="fill:#3DD1FF;stroke:#FFFFFF;stroke-width:0.1417;" d="M20.1,6.325l1.297-2.02l1.346-1.973
		c-0.633,0.143-1.201,0.294-1.404,0.396c-0.5,0.25-1.188-0.125-1.375-0.562s-1.438-0.062-2.438,0.5s-1.5,1.75-1.875,1.5
		s-2.625-0.562-3.25-0.562c-0.625,0-2.625-1.312-3.25-1.875S6.712,1.417,6.275,1.167S4.962,0.729,4.65,0.354
		S3.587,0.042,2.962,0.167s-2.125,1-2.25,1.5c-0.039,0.159-0.186,0.312-0.361,0.46l1.285,1.169l0.289,2.02l1.152,1.01
		c0,0,0,1.153-0.143,2.307c-0.145,1.154-1.154,2.598-1.877,3.318c-0.213,0.214-0.516,0.897-0.836,1.752
		c1.104,0.274,1.926,0.694,1.865,1.027c-0.125,0.688-2,0.375-2,1.812c0,0.098-0.008,0.189-0.014,0.284l10.648,5.653l-0.143,1.73
		c0,0,2.393,1.752,4.729,3.36c1.039-2.642,2.4-5.582,2.758-6.132c0.625-0.959,1.25-0.792,1.793-1.459
		c0.541-0.666,0.707,0.334,1.541-1c0.064-0.104,0.148-0.221,0.242-0.344l-1.398-2.215L20.1,6.325z"/>
</g>
<g id="Layer_1">
</g>
</svg>
