<?xml version="1.0" encoding="iso-8859-1"?>
<!-- Generator: Adobe Illustrator 16.2.1, SVG Export Plug-In . SVG Version: 6.00 Build 0)  -->
<!DOCTYPE svg PUBLIC "-//W3C//DTD SVG 1.1//EN" "http://www.w3.org/Graphics/SVG/1.1/DTD/svg11.dtd">
<svg version="1.1" xmlns="http://www.w3.org/2000/svg" xmlns:xlink="http://www.w3.org/1999/xlink" x="0px" y="0px"
	 width="11.938px" height="11.431px" viewBox="0 0 11.938 11.431" style="enable-background:new 0 0 11.938 11.431;"
	 xml:space="preserve">
<g id="Layer_26">
	<path style="fill:#3DD1FF;stroke:#FFFFFF;stroke-width:0.1417;" d="M9.672,6.604C8.797,6.042,8.359,6.042,8.734,5.729
		s0.438-1,0.312-2c-0.039-0.321-0.004-0.54,0.068-0.713c-0.293-0.119-0.523-0.26-0.56-0.424c-0.124-0.555-0.677,0.246-1.106,0.86
		C7.018,4.067,5.973,3.392,6.096,2.47c0.123-0.923-0.492-2.398-0.799-2.398c-0.195,0-1.029,0.123-2.037,0.354
		c0.132,0.449-0.166,0.939-0.275,1.43c-0.125,0.562-1.625,1.375-2.25,1.875c-0.174,0.14-0.402,0.499-0.641,0.947
		C1.27,5.42,2.64,6.283,3.756,7.126c2.041,1.541,5.125,3.583,6.584,4.125c0.193,0.071,0.426,0.103,0.686,0.107
		c0.349-1.579,0.721-1.775,0.834-2.629C11.984,7.792,10.547,7.167,9.672,6.604z"/>
</g>
<g id="Layer_1">
</g>
</svg>
