<?xml version="1.0" encoding="iso-8859-1"?>
<!-- Generator: Adobe Illustrator 16.2.1, SVG Export Plug-In . SVG Version: 6.00 Build 0)  -->
<!DOCTYPE svg PUBLIC "-//W3C//DTD SVG 1.1//EN" "http://www.w3.org/Graphics/SVG/1.1/DTD/svg11.dtd">
<svg version="1.1" xmlns="http://www.w3.org/2000/svg" xmlns:xlink="http://www.w3.org/1999/xlink" x="0px" y="0px"
	 width="29.968px" height="48.483px" viewBox="0 0 29.968 48.483" style="enable-background:new 0 0 29.968 48.483;"
	 xml:space="preserve">
<g id="Layer_5">
	<path style="fill:#DD893A;stroke:#FFFFFF;stroke-width:0.1417;" d="M29.877,12.465c-0.291-0.75-0.875-4.125-0.709-5.5
		s-0.25-5-0.25-6.75c0-0.039-0.006-0.07-0.008-0.107c-1.379,0.627-2.861,1.346-2.992,1.607c-0.25,0.5-1.332-0.083-2,0.5
		c-0.666,0.583-1.082,0.084-1.666-0.083c-0.582-0.167-0.834,0.583-0.916,1.083c-0.084,0.5-1.25,0.25-1.668,0.167
		c-0.416-0.083-1.75,0.333-2.416,0.333s-0.166-0.583-0.916-0.833s-1.25,0.333-1.668,0.333c-0.252,0-1.029-0.092-1.6-0.165
		c-0.01,0.386-0.053,0.726-0.15,0.978c-0.541,1.411,1.127,4.609,1.209,5.96c0.617,0.533,1.33,1.184,1.709,1.645
		c0.75,0.917,0,0.833,0.082,2.833c0.084,2-0.832,1.167-1.582,1.834c-0.75,0.666-0.084,2.166-0.25,2.583
		c-0.168,0.417-2.418-2.917-2.584-3.417s0.834-2.5,0.584-3.666c-0.25-1.167-1.75-0.417-2.25-0.334s-1.668-1.333-1.918-1.333
		s-7.832,2.833-7.832,2.833l0.582,2.084l-0.164,0.005l0.414,0.911c0,0,2.5,0.125,3.625,0.875s2.875,0.875,3.25,1.125
		s0,3,0.125,4.375s-1.5,1.75-0.75,2.5s0.375,2,0.875,2.125s-0.875,1.75-1.5,2.125s0,1.75-0.75,2.75
		c-0.48,0.641-1.881,1.895-2.859,2.846c0.049,0.027,0.09,0.057,0.109,0.092c0.25,0.438,1,4.812,1.75,5.25s0.312,4.75,0.25,5.125
		s0.312,3.25,0.312,3.25s1.115-0.172,2.1-0.162c0.066-0.567,0.109-1.063,0.131-1.4c0.082-1.333-0.834-0.25-1.125-1.083
		c-0.293-0.834,2.041-2.375,4.416-3.25s3.291-1.375,3.541-2.208c0.25-0.834-0.041-3.167,0.293-4.084
		c0.332-0.917-0.209-1.458-0.5-3.541c-0.293-2.084-1.043-2.417-1.375-3.584c-0.334-1.167-0.25-2.083,0.457-2.125
		c0.709-0.042,0.709-0.375,1.293-1.5c0.582-1.125,1.25-0.666,2.375-1.5c1.125-0.833,1.166-1.875,2.957-3.25s3.75-1.333,5.5-2.375
		S30.168,13.215,29.877,12.465z"/>
</g>
<g id="Layer_1">
</g>
</svg>
