<?xml version="1.0" encoding="iso-8859-1"?>
<!-- Generator: Adobe Illustrator 16.2.1, SVG Export Plug-In . SVG Version: 6.00 Build 0)  -->
<!DOCTYPE svg PUBLIC "-//W3C//DTD SVG 1.1//EN" "http://www.w3.org/Graphics/SVG/1.1/DTD/svg11.dtd">
<svg version="1.1" xmlns="http://www.w3.org/2000/svg" xmlns:xlink="http://www.w3.org/1999/xlink" x="0px" y="0px"
	 width="29.243px" height="39.087px" viewBox="0 0 29.243 39.087" style="enable-background:new 0 0 29.243 39.087;"
	 xml:space="preserve">
<g id="Layer_42">
	<path style="fill:#34BAEB;stroke:#FFFFFF;stroke-width:0.1417;" d="M6.872,7.119c0.5,0.25,1.312,1.562,1.875,1.688
		s3.688,1.188,5.688,2s3.25,0.875,3.875,0.875s1.562,0.188,1,0.625s-6.688,6.625-7.5,7.5s-1.312,0.562-3.125,0.562
		s-3.188,2-3.688,1.938C4.7,22.27,3.636,22.453,2.714,22.66l-1.346,1.973l-1.297,2.02l0.145,10.096l1.398,2.215
		c1.102-1.473,4.066-4.308,6.258-6.614c2.375-2.5,3.584-3.083,4.916-3.75c1.334-0.667,4.709-3.958,7.002-6.875
		c1.443-1.837,3.041-3.875,3.25-5.208c0.207-1.334,1.541-3.084,2.541-4.375c1-1.292,2.666-4.584,2.625-5.584
		s0.834-3.125,0.959-4.916c0.125-1.792-1.375-1.959-1.834-0.959s-4.041,1.667-6.334,1.709c-2.291,0.041-3.666,0.25-4.5,1.041
		c-0.834,0.792-2.916-0.208-3.666,0.667S9.122,5.724,8.165,3.724C7.761,2.881,7.226,2.411,6.718,2.115
		C5.911,2.941,4.946,4.161,5.122,4.557C5.372,5.119,6.372,6.869,6.872,7.119z"/>
</g>
<g id="Layer_1">
</g>
</svg>
