<?xml version="1.0" encoding="iso-8859-1"?>
<!-- Generator: Adobe Illustrator 16.2.1, SVG Export Plug-In . SVG Version: 6.00 Build 0)  -->
<!DOCTYPE svg PUBLIC "-//W3C//DTD SVG 1.1//EN" "http://www.w3.org/Graphics/SVG/1.1/DTD/svg11.dtd">
<svg version="1.1" xmlns="http://www.w3.org/2000/svg" xmlns:xlink="http://www.w3.org/1999/xlink" x="0px" y="0px"
	 width="11.869px" height="22.713px" viewBox="0 0 11.869 22.713" style="enable-background:new 0 0 11.869 22.713;"
	 xml:space="preserve">
<g id="Layer_40">
	<path style="fill:#238CC3;stroke:#FFFFFF;stroke-width:0.1417;" d="M3.001,5.542c0.667,1-0.166,2.666-0.833,3
		c-0.667,0.333-1.167,1.832-1.833,1.832s0,2.5,1.166,3c1.167,0.5,1.167,1.334,1.167,1.834s1.667,1,2.167,1.666
		c0.5,0.668,1.333,3.834,1.333,5c0,0.301,0.101,0.545,0.249,0.742c0.427-0.291,0.953-0.627,1.167-1.033
		c0.375-0.709,0.667-1.916,0.5-2.25s-0.125-0.916,0.25-1.25s1.875-1.916,2.166-2.041c0.292-0.125,1.251,0.041,1.209-0.875
		c-0.017-0.365,0.026-0.926,0.084-1.471c-0.675-0.434-1.084-0.943-1.084-1.195c0-0.542-0.75-1.458-1.166-0.958
		c-0.418,0.5-2,0.083-2.209-0.959s1.041-1,2.209-1.958c1.166-0.958,1.332-2.792,0.082-3.792s-0.375-1.541,0.5-2.458
		s0.084-1.417-0.375-1S8.544,1.917,8.419,0.917S5.585-0.25,4.544,0.708C4.18,1.042,3.621,1.145,3.028,1.141
		C2.78,2.797,2.557,4.874,3.001,5.542z"/>
</g>
<g id="Layer_1">
</g>
</svg>
