<?xml version="1.0" encoding="iso-8859-1"?>
<!-- Generator: Adobe Illustrator 16.2.1, SVG Export Plug-In . SVG Version: 6.00 Build 0)  -->
<!DOCTYPE svg PUBLIC "-//W3C//DTD SVG 1.1//EN" "http://www.w3.org/Graphics/SVG/1.1/DTD/svg11.dtd">
<svg version="1.1" xmlns="http://www.w3.org/2000/svg" xmlns:xlink="http://www.w3.org/1999/xlink" x="0px" y="0px"
	 width="15.605px" height="16.026px" viewBox="0 0 15.605 16.026" style="enable-background:new 0 0 15.605 16.026;"
	 xml:space="preserve">
<g id="Layer_9">
	<path style="fill:#34BAEB;stroke:#FFFFFF;stroke-width:0.1417;" d="M14.382,3.283l-0.289-2.02l-1.285-1.169
		c-0.377,0.318-0.908,0.617-0.951,0.915c-0.062,0.438-1.25,0.375-1.75,0.125S8.294,1.447,8.044,1.822s-1.125-0.688-1.75-0.625
		S4.169,1.822,4.169,1.822s-0.25,1.75-0.25,2.438s0.938,0.812,0.938,1.375s-0.75,1.062-0.812,1.438S3.481,7.697,2.856,7.884
		S2.294,9.071,1.794,9.446s-0.375,1.312-0.688,2s-0.5,1.625-0.5,2.438c0,0.652-0.084,1.572-0.469,2.046
		c0.799,0.082,1.006-0.043,1.406-0.243c0.576-0.289,2.885-0.865,2.885-0.865l2.35-0.192c0.521-1.471,1.293-2.809,2.141-3.058
		c1.096-0.322,2.588-0.194,3.76,0.098c0.32-0.854,0.623-1.538,0.836-1.752c0.723-0.721,1.732-2.164,1.877-3.318
		c0.143-1.153,0.143-2.307,0.143-2.307L14.382,3.283z"/>
</g>
<g id="Layer_1">
</g>
</svg>
