<?xml version="1.0" encoding="iso-8859-1"?>
<!-- Generator: Adobe Illustrator 16.2.1, SVG Export Plug-In . SVG Version: 6.00 Build 0)  -->
<!DOCTYPE svg PUBLIC "-//W3C//DTD SVG 1.1//EN" "http://www.w3.org/Graphics/SVG/1.1/DTD/svg11.dtd">
<svg version="1.1" xmlns="http://www.w3.org/2000/svg" xmlns:xlink="http://www.w3.org/1999/xlink" x="0px" y="0px"
	 width="17.339px" height="17.709px" viewBox="0 0 17.339 17.709" style="enable-background:new 0 0 17.339 17.709;"
	 xml:space="preserve">
<g id="Layer_29">
	<path style="fill:#34BAEB;stroke:#FFFFFF;stroke-width:0.1417;" d="M16.33,14.759c-0.374-0.5-1.25-2.625-1.187-3.125
		c0.062-0.5,1.125-2,1.062-2.75s1.062-1.25,1.062-1.875c0-0.477-0.291-2.838-0.982-4.379c-0.143,0.01-0.316-0.065-0.518-0.268
		c-0.5-0.5-2.582-0.416-3.332,0.418c-0.75,0.833-2.25-0.75-2.5-1.168c-0.25-0.416-1.334-1.332-2.168-0.75
		c-0.833,0.584-1.082,0.418-1-0.332c0.084-0.75-1.25-0.5-1.416,0.166s-1.25,1.25-1.584,0.75C3.436,0.946,2.687,0.28,2.353,1.03
		C2.12,1.551,1.729,1.503,1.398,1.26C1.188,2.187,0.93,3.25,1.394,3.508c0.562,0.312,0.625,0.938,0.5,1.312s0.937,1.312,0.5,1.75
		c-0.438,0.438-1-0.438-1.313,0.188c-0.312,0.625,0.625,1.188,0.25,1.688c-0.375,0.5-0.937,0.562-0.812,1.563
		c0.125,1,0.062,1.688-0.312,2c-0.375,0.312,0.062,0.312,0.938,0.875s2.312,1.188,2.187,2.125c-0.113,0.854-0.485,1.05-0.834,2.629
		c1.697,0.035,4.737-1.202,8.314-1.816c2.236-0.384,4.128-0.068,5.472,0.319C16.425,15.607,16.521,15.01,16.33,14.759z"/>
</g>
<g id="Layer_1">
</g>
</svg>
