<?xml version="1.0" encoding="iso-8859-1"?>
<!-- Generator: Adobe Illustrator 16.2.1, SVG Export Plug-In . SVG Version: 6.00 Build 0)  -->
<!DOCTYPE svg PUBLIC "-//W3C//DTD SVG 1.1//EN" "http://www.w3.org/Graphics/SVG/1.1/DTD/svg11.dtd">
<svg version="1.1" xmlns="http://www.w3.org/2000/svg" xmlns:xlink="http://www.w3.org/1999/xlink" x="0px" y="0px"
	 width="34.423px" height="37.848px" viewBox="0 0 34.423 37.848" style="enable-background:new 0 0 34.423 37.848;"
	 xml:space="preserve">
<g id="Layer_23">
	<path style="fill:#34BAEB;stroke:#FFFFFF;stroke-width:0.1417;" d="M2.625,32.68c0.99,0.199,2.575,0,2.575,0
		s1.388-0.594,2.181-0.197c0.792,0.396,1.584,1.387,1.584,1.387h0.991c0,0,0.792,2.18,1.981,2.576
		c0.684,0.227,1.099,0.844,1.334,1.33c0.847-0.021,1.504-0.299,1.504-0.908c0-0.76,0.381-1.77,1.644-0.633
		c1.265,1.139,1.265,0.127,1.518-0.252c0.253-0.381,1.138,0.125,1.896,0.125c0.759,0,1.769-0.504,1.769-0.504
		s10.493,0.125,10.999-0.127c0.505-0.252,0.379-2.402,0.379-2.402l-0.885-0.885L29.439,7.289h4.748
		c-5.069-3.351-9.412-6.193-9.965-6.51c-0.3-0.172-0.457-0.342-0.554-0.506c0.049,1.965,0.079,3.963-0.063,4.057
		c-0.275,0.184-9.463,0-9.463,0s0,6.891,0,7.534s-2.94,1.47-2.94,2.112c0,0.644,0,4.41,0,4.41H0.087
		c-0.161,1.815,0.946,2.459,1.579,3.184c0.875,1-0.666,2.75,0.625,4.541S2,30.652,1.375,31.652c-0.34,0.545-0.375,1.486-0.48,2.453
		c0.054-0.016,0.113-0.031,0.145-0.039C1.832,33.869,1.635,32.482,2.625,32.68z"/>
</g>
<g id="Layer_1">
</g>
</svg>
