<?xml version="1.0" encoding="iso-8859-1"?>
<!-- Generator: Adobe Illustrator 16.2.1, SVG Export Plug-In . SVG Version: 6.00 Build 0)  -->
<!DOCTYPE svg PUBLIC "-//W3C//DTD SVG 1.1//EN" "http://www.w3.org/Graphics/SVG/1.1/DTD/svg11.dtd">
<svg version="1.1" xmlns="http://www.w3.org/2000/svg" xmlns:xlink="http://www.w3.org/1999/xlink" x="0px" y="0px"
	 width="25.276px" height="27.111px" viewBox="0 0 25.276 27.111" style="enable-background:new 0 0 25.276 27.111;"
	 xml:space="preserve">
<g id="Layer_49">
	<path style="fill:#BB220F;stroke:#FFFFFF;stroke-width:0.1417;" d="M23.208,11.128c-0.857,0.027-1.973-1.127-1.973-1.973
		s-1.129-1.551-1.129-2.114s-1.832-1.55-2.818-1.973s-1.127-3.382-1.549-3.382c-0.318,0-1.189-0.871-1.605-1.604
		c-0.696,0.166-1.442,0.362-1.895,0.362c-0.834,0-1.668,0.834-2,1.25c-0.334,0.416-1-0.75-1.5-1.084
		c-0.5-0.333-2.584,0.75-3.168,0.918C4.989,1.694,2.905,1.86,2.905,1.86s0,8.584,0,9.668c0,1.083-2.834,0.416-2.834,1.082
		c0,0.311,0,4.166,0,8.289c0.611,0.222,1.191,0.519,1.334,0.879c0.334,0.833,1.084,2.666,0.916,3.166
		c-0.166,0.5-0.582,0.167-0.582,0.667s-0.334,1.25,0.5,1.25c0.832,0,2.25,0.499,2.832-0.167c0.584-0.666,2.502-2.166,2.584-2.916
		c0.084-0.75,0.5-2.417,1.916-1.5c1.418,0.916,1.502,1.083,3.334,1.083c1.834,0,2.334-0.083,2.667-1.25
		c0.334-1.167,0.002-2.083,1.084-2.083c1.084,0,2.416-1,2.416-1.75s0.5-1.917,1.168-1.917c0.666,0,2.082-0.834,2.25-1.667
		c0.166-0.833,1.332-0.5,1.75-1c0.203-0.245,0.607-0.83,0.967-1.362c0-0.005-0.01-0.007-0.01-0.013
		C25.196,11.819,25.009,11.069,23.208,11.128z"/>
</g>
<g id="Layer_1">
</g>
</svg>
