<?xml version="1.0" encoding="iso-8859-1"?>
<!-- Generator: Adobe Illustrator 16.2.1, SVG Export Plug-In . SVG Version: 6.00 Build 0)  -->
<!DOCTYPE svg PUBLIC "-//W3C//DTD SVG 1.1//EN" "http://www.w3.org/Graphics/SVG/1.1/DTD/svg11.dtd">
<svg version="1.1" xmlns="http://www.w3.org/2000/svg" xmlns:xlink="http://www.w3.org/1999/xlink" x="0px" y="0px"
	 width="34.115px" height="27.143px" viewBox="0 0 34.115 27.143" style="enable-background:new 0 0 34.115 27.143;"
	 xml:space="preserve">
<g id="Layer_41">
	<path style="fill:#1A76AF;stroke:#FFFFFF;stroke-width:0.1417;" d="M12.68,26.872c-0.045-1.848-0.109-3.666-0.064-3.844
		c0.092-0.368,3.858-2.572,4.502-2.94c0.643-0.368,1.836,0.184,1.836-0.552c0-0.734,1.562-0.367,2.481-0.551
		c0.918-0.184,1.469-0.826,1.469-1.654c0-0.826,1.287-0.643,2.113-0.734c0.828-0.092,0.735-0.826,1.287-0.826
		c0.551,0,0.275-0.828,0.367-1.746s0.092-0.735,0.918-0.735c0.828,0,1.654-0.459,1.654-1.011c0-0.551,3.584-0.184,4.135-0.184
		s0.734-0.643,0.643-1.102s-0.551-1.838-1.103-1.93s-0.184-1.471-0.184-2.572c0-1.104-0.183-2.113-0.827-2.94
		c-0.135-0.174-0.295-0.489-0.463-0.868c-1.006,0.021-2.223-0.734-3.27-0.764c-1.459-0.042-3.709,0.708-4.791-0.5
		C22.301,0.21,21.551-0.165,20.76,0.21s-2.25,4.542-3.083,5.75c-0.834,1.209-3.166,2.042-4.291,2.042s-1.25,1.708-2.125,2.417
		c-0.875,0.708-0.541,1.833-1.584,2.666c-1.041,0.834-0.541,3.375,0,4.292c0.541,0.916-1.916,3.792-3.333,4.625
		c-1.417,0.833-1.875,2.417-4.125,2.792c-0.875,0.145-1.53,0.52-2.04,0.998c3.503,0,8.699,0,10.478,0
		C12.832,25.792,12.33,26.28,12.68,26.872z"/>
</g>
<g id="Layer_1">
</g>
</svg>
