<?xml version="1.0" encoding="iso-8859-1"?>
<!-- Generator: Adobe Illustrator 16.2.1, SVG Export Plug-In . SVG Version: 6.00 Build 0)  -->
<!DOCTYPE svg PUBLIC "-//W3C//DTD SVG 1.1//EN" "http://www.w3.org/Graphics/SVG/1.1/DTD/svg11.dtd">
<svg version="1.1" xmlns="http://www.w3.org/2000/svg" xmlns:xlink="http://www.w3.org/1999/xlink" x="0px" y="0px" width="5.396px"
	 height="14.789px" viewBox="0 0 5.396 14.789" style="enable-background:new 0 0 5.396 14.789;" xml:space="preserve">
<g id="Layer_31">
	<path style="fill:#34BAEB;stroke:#FFFFFF;stroke-width:0.1417;" d="M4.645,5.199c-0.5-0.5,0.625-1.438-0.562-2.125
		C3.033,2.467,2.668,2.636,2.553,0.439C1.95,0.399,1.06,0.139,0.416,0.074C0.281,0.061,0.175,0.09,0.079,0.133
		C0.213,0.929,0.41,1.815,0.644,1.949c0.438,0.25,0.75,0.75,0.688,1.688c-0.062,0.938-0.312,3,0.062,3.938
		c0.375,0.938,0.75,2.438,0.75,3.875c0,0.896,0.511,2.229,1.031,3.243c0.217-0.115,0.415-0.235,0.573-0.368
		c0.374-0.314,0.963-0.506,1.574-0.623c-0.066-1.792-0.164-4.244-0.24-5.189C4.957,6.949,5.145,5.699,4.645,5.199z"/>
</g>
<g id="Layer_1">
</g>
</svg>
