<?xml version="1.0" encoding="iso-8859-1"?>
<!-- Generator: Adobe Illustrator 16.2.1, SVG Export Plug-In . SVG Version: 6.00 Build 0)  -->
<!DOCTYPE svg PUBLIC "-//W3C//DTD SVG 1.1//EN" "http://www.w3.org/Graphics/SVG/1.1/DTD/svg11.dtd">
<svg version="1.1" xmlns="http://www.w3.org/2000/svg" xmlns:xlink="http://www.w3.org/1999/xlink" x="0px" y="0px"
	 width="16.205px" height="12.727px" viewBox="0 0 16.205 12.727" style="enable-background:new 0 0 16.205 12.727;"
	 xml:space="preserve">
<g id="Layer_36">
	<path style="fill:#1A76AF;stroke:#FFFFFF;stroke-width:0.1417;" d="M3.269,12.357c0.526,0.053,1.581-0.633,1.581-0.633
		s3.531-0.263,4.111-0.315c0.205-0.02,0.463,0.069,0.711,0.189c0.012-0.151,0.008-0.262,0.008-0.262s1.875,0.375,2,0.812
		s2.688,0.75,4.125,0.25c0.106-0.037,0.207-0.074,0.311-0.111c0.018-0.571,0.039-1.501-0.018-1.785c-0.084-0.416-1-1.332-1.5-1.832
		s-0.418-1.75-0.418-1.75l-0.518-0.769c0,0-0.396-1.585-1.586-1.981s-1.981-2.576-1.981-2.576H9.104c0,0-0.792-0.99-1.584-1.387
		c-0.793-0.396-2.18,0.197-2.18,0.197s-1.585,0.199-2.576,0c-0.99-0.197-0.793,1.189-1.586,1.388
		C1.146,1.801,1.087,1.816,1.033,1.831c-0.09,0.807-0.227,1.63-0.645,2.256c-0.917,1.375,0.375,3.375,1.041,4
		c0.14,0.131,0.18,0.314,0.169,0.529c1.517,0.155,2.36-0.003,3.567-0.581c1.213-0.58,1.318,1.054,2.688,1.158
		C9.225,9.3,9.383,9.405,9.383,9.405S8.486,9.984,7.644,9.88C6.801,9.774,5.852,8.721,5.271,9.247
		c-0.58,0.527-2.371,0.844-3.215,0.896c-0.138,0.009-0.435,0.074-0.824,0.173c-0.061,0.467-0.019,0.929,0.322,1.312
		c0.107,0.121,0.198,0.23,0.284,0.339C3.266,11.606,2.826,12.313,3.269,12.357z"/>
</g>
<g id="Layer_1">
</g>
</svg>
