<?xml version="1.0" encoding="iso-8859-1"?>
<!-- Generator: Adobe Illustrator 16.2.1, SVG Export Plug-In . SVG Version: 6.00 Build 0)  -->
<!DOCTYPE svg PUBLIC "-//W3C//DTD SVG 1.1//EN" "http://www.w3.org/Graphics/SVG/1.1/DTD/svg11.dtd">
<svg version="1.1" xmlns="http://www.w3.org/2000/svg" xmlns:xlink="http://www.w3.org/1999/xlink" x="0px" y="0px"
	 width="58.885px" height="56.467px" viewBox="0 0 58.885 56.467" style="enable-background:new 0 0 58.885 56.467;"
	 xml:space="preserve">
<g id="Layer_39">
	<path style="fill:#2CA3D7;stroke:#FFFFFF;stroke-width:0.1417;" d="M20.206,10.724c0,1.102-0.368,2.48,0.184,2.572
		s1.011,1.471,1.103,1.93s-0.092,1.102-0.643,1.102c-0.552,0-4.135-0.367-4.135,0.184c0,0.552-0.827,1.011-1.654,1.011
		c-0.826,0-0.826-0.183-0.918,0.735s0.184,1.746-0.367,1.746c-0.552,0-0.459,0.734-1.287,0.826
		c-0.826,0.092-2.113-0.092-2.113,0.734c0,0.828-0.551,1.471-1.469,1.654c-0.92,0.184-2.481-0.184-2.481,0.551
		c0,0.735-1.194,0.184-1.837,0.552c-0.644,0.368-4.41,2.572-4.502,2.94c-0.045,0.178,0.019,1.997,0.064,3.844
		c0.096,0.164,0.253,0.334,0.553,0.506C2.09,32.402,27.254,49.047,28.047,49.84s1.784,2.576,1.784,2.576s1.782,0.197,3.17,0.99
		s1.387,2.973,1.387,2.973s1.783-0.396,2.774-0.594c0.99-0.199,4.359-1.387,4.359-1.387l5.151-4.162l12.087-7.529
		c0,0,0.012,0,0.031,0c-0.373-1.334-0.773-2.402-1.42-2.402c-0.729,0-1.248-0.625-2.08-0.625c-0.831,0-1.871-0.414-1.975-1.143
		s0.312-1.248-0.312-2.184c-0.623-0.936-1.246-1.352-1.246-1.768s1.057-1.227,1.223-1.393s-0.417-0.834-0.417-1.291
		c0-0.459-0.417-1.25,0-1.75s0.667-1.002,0.208-1.918c-0.458-0.916,0.626-1.749,0.084-2.957c-0.542-1.209-1.375-2.168-1.292-2.584
		c0.036-0.178,0.304-0.373,0.624-0.592c-0.147-0.198-0.249-0.441-0.249-0.742c0-1.166-0.833-4.333-1.333-5
		c-0.5-0.666-2.167-1.166-2.167-1.666s0-1.334-1.167-1.834c-1.166-0.5-1.832-3-1.166-3s1.166-1.499,1.833-1.832
		c0.667-0.334,1.5-2,0.833-3c-0.444-0.668-0.221-2.744,0.027-4.4c-1.104-0.008-2.326-0.408-2.652-0.517
		c-0.5-0.167-1.957,0.25-2.875,0.292c-0.916,0.041-3.166,1.5-3.916,0.791c-0.75-0.708-8.418,0.542-10.584,0.625
		s-3.084,2.334-4.375,2.334s-3.334,1.083-4.416,2.291c-0.306,0.342-0.67,0.465-1.064,0.473c0.168,0.379,0.328,0.694,0.463,0.868
		C20.022,8.611,20.206,9.621,20.206,10.724z"/>
</g>
<g id="Layer_1">
</g>
</svg>
