<?xml version="1.0" encoding="iso-8859-1"?>
<!-- Generator: Adobe Illustrator 16.2.1, SVG Export Plug-In . SVG Version: 6.00 Build 0)  -->
<!DOCTYPE svg PUBLIC "-//W3C//DTD SVG 1.1//EN" "http://www.w3.org/Graphics/SVG/1.1/DTD/svg11.dtd">
<svg version="1.1" xmlns="http://www.w3.org/2000/svg" xmlns:xlink="http://www.w3.org/1999/xlink" x="0px" y="0px"
	 width="21.072px" height="32.637px" viewBox="0 0 21.072 32.637" style="enable-background:new 0 0 21.072 32.637;"
	 xml:space="preserve">
<g id="Layer_30">
	<path style="fill:#34BAEB;stroke:#FFFFFF;stroke-width:0.1417;" d="M8.806,30.963c0,0,6.604,0.348,7.473,0.174
		s3.998,1.391,3.998,1.391s0.148-1.576,0.697-2.516c-0.215-0.116-0.428-0.274-0.486-0.475c-0.125-0.438-1.375-1.25-1.812-1.812
		s-0.625-0.938-0.625-0.938s0.125-0.938-0.438-1.688s-0.812-1.25-0.812-2.25s-0.375-1.75-0.375-2.312s1-1.625,1.375-2.812
		c0.219-0.691,0.879-1.254,1.42-1.753c-0.277-0.433-0.58-1.21-0.836-2.038c-0.332-1.084-1.25-1.417-2.334-2.417
		c-1.082-1-0.666-1.583-0.666-2s1.416-0.417,2.416-0.333c1,0.083,1.584-0.167,1.168-0.417c-0.418-0.25-1.25-2.167-1.168-3.5
		c0.084-1.333-0.416-1.75-0.332-2.5c0.082-0.75-0.918-2.667-1.75-2.667c-0.061,0-0.107-0.012-0.16-0.02
		c-0.143,0.6-0.174,1.284-0.174,1.52c0,0.416,0.666,1,1.166,1.166c0.5,0.167,0.25,1,0.168,1.75c-0.084,0.75-1.418,0.584-1.668,0.918
		c-0.25,0.333-1.75,2.666-1.666,3.082c0.084,0.417-0.25,1.668-0.666,1.834s-0.334,1.084-0.334,1.5s-1.333,1-1.333,1.666
		c0,0.667-1.582,3.418-2.082,4.334s-1,2.084-1.168,1.25c-0.166-0.834-1.416-1.834-2-1.416c-0.583,0.416-1.332,0.166-1.666,0.25
		c-0.334,0.083-3.229,3.079-3.229,3.079s-0.219,1.42-0.82,3.022c0.37,0.229,0.762,0.975,1.174,1.564
		c0.583,0.834,1.707,0.209,2.166,0.459s0.959,2.208,0.791,2.75c-0.159,0.521-0.849,1.845-0.531,2.502h3.903L8.806,30.963z"/>
</g>
<g id="Layer_1">
</g>
</svg>
