<?xml version="1.0" encoding="iso-8859-1"?>
<!-- Generator: Adobe Illustrator 16.2.1, SVG Export Plug-In . SVG Version: 6.00 Build 0)  -->
<!DOCTYPE svg PUBLIC "-//W3C//DTD SVG 1.1//EN" "http://www.w3.org/Graphics/SVG/1.1/DTD/svg11.dtd">
<svg version="1.1" xmlns="http://www.w3.org/2000/svg" xmlns:xlink="http://www.w3.org/1999/xlink" x="0px" y="0px"
	 width="30.805px" height="31.218px" viewBox="0 0 30.805 31.218" style="enable-background:new 0 0 30.805 31.218;"
	 xml:space="preserve">
<g id="Layer_4">
	<path style="fill:#F4CE57;stroke:#FFFFFF;stroke-width:0.1417;" d="M28.74,24.98c-0.084-1.709-1.084-1.709-1.041-2.875
		c0.041-1.167,0.125-2.209-0.293-2.334c-0.416-0.125-0.166-1.125,0.5-2.125c0.668-1-1.207-1.125-1.5-2.375
		c-0.123-0.532,0.473-2.326,1.242-4.284c-2.336-1.608-4.729-3.36-4.729-3.36l0.143-1.73L12.415,0.244
		c-0.07,1.299-0.604,2.304-1.361,2.653c-0.812,0.375,1.125,1.562,0.188,1.75s-3.062-0.875-4.562-0.25
		C5.67,4.817,5.879,2.294,6.663,0.08l-2.35,0.192c0,0-0.639,0.16-1.328,0.354l0.463,1.232c0,0,0.576,1.153,0.432,1.875
		C3.815,4.061,3.297,4.206,2.756,4.27C2.948,5.122,2.87,5.752,2.87,5.752l0.723,0.432c0,0-1.588,3.029-2.309,3.318
		C1.09,9.579,0.635,9.856,0.079,10.215c0.424,2.129,0.945,4.657,1.725,5.369c1.438,1.312,1.188,2.812,1.5,3.687
		s1.562,1.875,0.688,2.25c-0.564,0.242-1.066-0.364-1.568-1.185c-0.053,0.147-0.111,0.296-0.182,0.435
		c-0.023,0.047-0.07,0.08-0.107,0.12c0.766,0.565,1.658,1.159,2.035,1.159c0.721,0,1.875,0.866,2.596,1.01
		c0.723,0.145,3.295,1.172,3.607,1.588c0.055,0.072,0.115,0.167,0.182,0.276c0.613-0.031,1.422-0.053,1.898,0.007
		c0.104-0.094,0.23-0.16,0.414-0.16c0.951,0,2.076,3.609,2.025,5.71c0.57,0.073,1.347,0.165,1.599,0.165
		c0.418,0,0.918-0.583,1.668-0.333s0.25,0.833,0.916,0.833s2-0.416,2.416-0.333c0.418,0.083,1.584,0.333,1.668-0.167
		c0.082-0.5,0.334-1.25,0.916-1.083c0.584,0.167,1,0.666,1.666,0.083c0.668-0.583,1.75,0,2-0.5c0.131-0.262,1.613-0.98,2.992-1.607
		C30.652,25.938,28.822,26.65,28.74,24.98z"/>
</g>
<g id="Layer_1">
</g>
</svg>
