<?xml version="1.0" encoding="iso-8859-1"?>
<!-- Generator: Adobe Illustrator 16.2.1, SVG Export Plug-In . SVG Version: 6.00 Build 0)  -->
<!DOCTYPE svg PUBLIC "-//W3C//DTD SVG 1.1//EN" "http://www.w3.org/Graphics/SVG/1.1/DTD/svg11.dtd">
<svg version="1.1" xmlns="http://www.w3.org/2000/svg" xmlns:xlink="http://www.w3.org/1999/xlink" x="0px" y="0px"
	 width="35.961px" height="35.675px" viewBox="0 0 35.961 35.675" style="enable-background:new 0 0 35.961 35.675;"
	 xml:space="preserve">
<g id="Layer_51">
	<path style="fill:#C7451D;stroke:#FFFFFF;stroke-width:0.1417;" d="M13.291,34.274c0-0.584,1.002-1.667,1.584-0.834
		c0.584,0.834,0.334,2,1.5,2s3.25,0.418,3.584-0.082c0.332-0.5,1.832-0.918,1.832-1.834s0-17.917,0-18.584
		c0-0.666,2.834,0.001,2.834-1.082c0-1.084,0-9.668,0-9.668s2.084-0.166,2.666-0.332c0.584-0.168,2.668-1.251,3.168-0.918
		c0.5,0.334,1.166,1.5,1.5,1.084c0.332-0.416,1.166-1.25,2-1.25c0.453,0,1.199-0.196,1.895-0.362
		c-0.139-0.245-0.227-0.475-0.227-0.651c0-0.704-5.074,0.142-5.92,0.424c-0.846,0.281-3.521,0.704-4.367,0.281s-6.201,0-6.201,0
		l-0.986-0.986c0,0-8.738,0-9.724,0s-1.69-0.141-2.536-0.705C5.046,0.211,4.201,0.212,3.214,0.634
		C2.227,1.056,2.651,0.07,1.946,0.07c-0.704,0-0.986,0.704-0.986,0.704L0.079,1.007c-0.092,0.861,0.668,2.442,1.588,3.685
		c0.959,1.291,2.125,3.708,2.75,5.75c0.625,2.041,2.417,4.333,2.875,5.875c0.459,1.541-0.332,3.75,0.125,4.75
		c0.459,1,0.75,2.708,1,4.417c0.25,1.708,0.375,5.333,1.917,6.833c0.586,0.57,1.189,1.364,1.75,2.25
		C12.77,34.633,13.291,34.715,13.291,34.274z"/>
</g>
<g id="Layer_1">
</g>
</svg>
