<?xml version="1.0" encoding="iso-8859-1"?>
<!-- Generator: Adobe Illustrator 16.2.1, SVG Export Plug-In . SVG Version: 6.00 Build 0)  -->
<!DOCTYPE svg PUBLIC "-//W3C//DTD SVG 1.1//EN" "http://www.w3.org/Graphics/SVG/1.1/DTD/svg11.dtd">
<svg version="1.1" xmlns="http://www.w3.org/2000/svg" xmlns:xlink="http://www.w3.org/1999/xlink" x="0px" y="0px"
	 width="46.271px" height="57.568px" viewBox="0 0 46.271 57.568" style="enable-background:new 0 0 46.271 57.568;"
	 xml:space="preserve">
<g id="Layer_14">
	<path style="fill:#238CC3;stroke:#FFFFFF;stroke-width:0.1417;" d="M36.514,1.292c-0.832,0-0.5,2-1.832,2
		c-1.334,0-0.834,1.334-1.668,1.334c-0.832,0-1.5-0.834-1.5-0.834h-3.666c0,0-0.834-0.833-1.334-0.5s-1,0.667-1,0.667H8.322
		c0,3.459,0,5.925,0,5.925H5.715v9.211c0,0,0.174,2.781-0.348,2.955s-2.434,0.695-2.434,1.564s-0.174,1.564-1.043,1.738
		c-0.867,0.174,0,2.085-1.217,2.085s0.521,1.391-0.174,2.085c-0.695,0.695-0.521,1.564,0.348,1.564s0.521,1.043,0.521,2.086
		s1.391,1.738,1.391,1.738l-0.348,1.217c0,0,1.912,2.26,2.086,2.78s1.217,1.912,0.174,2.434s-0.348,1.042-0.348,1.042l1.217,0.174
		l0.348,0.869c0,0,1.391,0,2.26,1.043s1.217,1.217,1.217,1.738s0.695,0.695,1.738,1.564s1.041,1.391,1.041,1.912
		s1.912,1.39,1.912,1.39l0.65,1.626c0.328,0.172,0.59,0.38,0.73,0.735c0.35,0.871,1.221,1.394,1.221,1.394s1.045,0.697,1.742,0
		s1.568,0.175,1.568,0.175s0.871-0.697,1.393-0.349c0.355,0.236,1.91,1.514,3.256,2.746c0.201-0.074,1.508-0.552,2.084-0.609
		c0.625-0.062,1.5,1,1.75,0.625s1.562-0.938,2.062-0.688s1.688,0.312,1.75-0.125c0.043-0.298,0.574-0.597,0.951-0.915
		c0.176-0.147,0.322-0.301,0.361-0.46c0.125-0.5,1.625-1.375,2.25-1.5s1.375-0.188,1.688,0.188c0.146,0.174,0.416,0.307,0.703,0.425
		c0.213-1.6,0.566-2.474,0.047-2.474c-0.697,0-2.092-0.697-2.613-2.091c-0.523-1.394-2.092-2.265-2.439-3.136
		c-0.35-0.871-2.266-0.697-2.613-1.395c-0.35-0.697,0.521-0.697,0.521-1.568s2.092-0.348,2.266-0.521
		c0.174-0.175,0.348-2.093,0.348-3.137c0-1.045,1.395-2.092,0.871-2.613c-0.521-0.523,0.523-0.697,1.221-1.22
		s0.174-2.092,0.871-2.789c0.697-0.696,1.219-2.089,1.742-2.089s1.219-0.697,1.219-1.395s1.221-2.091,1.047-3.311
		c-0.176-1.22-0.697-2.787,0.174-3.833s1.219-1.917,1.045-2.788s1.045-1.045,1.568-1.568c0.369-0.369,1.699-0.92,2.693-2.506
		c-0.635-0.778-1.314-1.417-1.752-1.617c-1-0.458-1.668-2.208-1.668-4.416c0-2.209-0.541-3.959-0.625-4.667
		s-1.166-2.208-2.457-2.917c-0.912-0.5-1.422-1.251-1.574-2.117c-0.027,0.037-0.068,0.082-0.094,0.117
		C37.182,1.458,37.348,1.292,36.514,1.292z"/>
</g>
<g id="Layer_1">
</g>
</svg>
