<?xml version="1.0" encoding="iso-8859-1"?>
<!-- Generator: Adobe Illustrator 16.2.1, SVG Export Plug-In . SVG Version: 6.00 Build 0)  -->
<!DOCTYPE svg PUBLIC "-//W3C//DTD SVG 1.1//EN" "http://www.w3.org/Graphics/SVG/1.1/DTD/svg11.dtd">
<svg version="1.1" xmlns="http://www.w3.org/2000/svg" xmlns:xlink="http://www.w3.org/1999/xlink" x="0px" y="0px" width="8.465px"
	 height="17.491px" viewBox="0 0 8.465 17.491" style="enable-background:new 0 0 8.465 17.491;" xml:space="preserve">
<g id="Layer_32">
	<path style="fill:#3DD1FF;stroke:#FFFFFF;stroke-width:0.1417;" d="M5.729,11.092c0.187-1.375,1.187-2.062,1.187-2.062
		s0.438-1,1.063-1.625s0.375-3.438,0.312-4C8.257,3.079,8.115,2.197,8.005,1.506c-0.197,0.119-0.496,0.12-0.9-0.06
		c-0.75-0.333-0.082-1.083-0.916-1.333s-1.166,0.666-1,1.333s-0.416,0.667-0.75,1.083s-1.834,0.5-2.334,0.5S1.022,3.946,0.522,4.113
		C0.409,4.15,0.253,4.155,0.075,4.145c0.115,2.196,0.48,2.027,1.529,2.635c1.188,0.688,0.062,1.625,0.562,2.125
		s0.313,1.75,0.438,3.312c0.076,0.945,0.174,3.397,0.24,5.189c0.686-0.131,1.401-0.168,1.885-0.168c0.896,0,1.435-1.187,1.927-0.612
		c-0.309-0.931-0.864-1.472-0.864-2.222C5.792,13.342,5.542,12.467,5.729,11.092z"/>
</g>
<g id="Layer_1">
</g>
</svg>
