<?xml version="1.0" encoding="iso-8859-1"?>
<!-- Generator: Adobe Illustrator 16.2.1, SVG Export Plug-In . SVG Version: 6.00 Build 0)  -->
<!DOCTYPE svg PUBLIC "-//W3C//DTD SVG 1.1//EN" "http://www.w3.org/Graphics/SVG/1.1/DTD/svg11.dtd">
<svg version="1.1" xmlns="http://www.w3.org/2000/svg" xmlns:xlink="http://www.w3.org/1999/xlink" x="0px" y="0px"
	 width="45.461px" height="39.901px" viewBox="0 0 45.461 39.901" style="enable-background:new 0 0 45.461 39.901;"
	 xml:space="preserve">
<g id="Layer_46">
	<path style="fill:#B00000;stroke:#FFFFFF;stroke-width:0.1417;" d="M43.282,15.001c0,0-0.014-0.113-0.037-0.295
		c-0.221,0.181-0.447,0.438-0.475,0.752c-0.059,0.639-0.697,0.697-1.568,0.639c-0.871-0.058-1.742-2.266-1.742-2.613
		s1.219-2.033,1.916-2.033c0.451,0,1.096,0.486,1.607,0.83c-0.02-0.254-0.025-0.449-0.014-0.529c0.062-0.375,0.5-4.688-0.25-5.125
		s-1.5-4.812-1.75-5.25s-3-0.188-3.312-0.688c-0.309-0.494-2.627-0.014-2.678-0.487c-0.359,0.532-0.764,1.117-0.967,1.362
		c-0.418,0.5-1.584,0.167-1.75,1c-0.168,0.833-1.584,1.667-2.25,1.667c-0.668,0-1.168,1.167-1.168,1.917s-1.332,1.75-2.416,1.75
		c-1.082,0-0.75,0.916-1.084,2.083c-0.332,1.167-0.832,1.25-2.666,1.25c-1.832,0-1.916-0.167-3.334-1.083
		c-1.416-0.917-1.832,0.75-1.916,1.5c-0.082,0.75-2,2.25-2.584,2.916c-0.582,0.666-2,0.167-2.832,0.167c-0.834,0-0.5-0.75-0.5-1.25
		s0.416-0.167,0.582-0.667c0.168-0.5-0.582-2.333-0.916-3.166c-0.143-0.36-0.723-0.657-1.334-0.879c0,4.727,0,9.806,0,10.295
		c0,0.916-1.5,1.334-1.832,1.834c-0.334,0.5-2.418,0.082-3.584,0.082s-0.916-1.166-1.5-2c-0.582-0.833-1.584,0.25-1.584,0.834
		c0,0.44-0.521,0.358-1.207,0.292c0.914,1.443,1.711,3.131,2.125,4.5c0.666,2.208,2.291,4.292,2.707,5.583
		c0.416,1.292,0.875,2.5,0,2.625s-0.875,0.875,0.041,2.292c0.918,1.417,0.125,2.25,0.918,2.417c0.791,0.166,0.541,0.666,1.166,0.708
		s1.084,0.667,1.5,1.208c0.416,0.542,1.375,0.542,1.834-0.125s1.875-0.875,3.332-0.875c1.459,0,1.168-0.625,2.584-1.041
		c1.416-0.417,3.125-0.459,4.334-0.042s2.125,0.042,2.709-0.333c0.582-0.375,1.707,0.583,1.791-0.375
		c0.084-0.959,1.25-0.792,2.334-0.792c1.082,0,3.707-1.708,5.791-3.667c2.084-1.958,5.541-6.25,6.709-8.208
		c1.166-1.959,3.082-3.625,4.041-4.5c0.717-0.654,1.131-2.961,1.328-4.642C44.397,14.829,43.282,15.001,43.282,15.001z
		 M34.595,24.313c0,0.667-1.5-0.167-1.832,0.5c-0.334,0.667-0.668,1.5-0.668,1.5l-1.166-0.166l-1.666-2.334
		c0,0,1.334-1.834,1.666-2.5c0.334-0.666,2.5-1.833,2.834-1.166c0.332,0.666,1.832,1.499,1.832,2.166S34.595,23.646,34.595,24.313z"
		/>
</g>
<g id="Layer_1">
</g>
</svg>
