<?xml version="1.0" encoding="iso-8859-1"?>
<!-- Generator: Adobe Illustrator 16.2.1, SVG Export Plug-In . SVG Version: 6.00 Build 0)  -->
<!DOCTYPE svg PUBLIC "-//W3C//DTD SVG 1.1//EN" "http://www.w3.org/Graphics/SVG/1.1/DTD/svg11.dtd">
<svg version="1.1" xmlns="http://www.w3.org/2000/svg" xmlns:xlink="http://www.w3.org/1999/xlink" x="0px" y="0px"
	 width="30.334px" height="30.941px" viewBox="0 0 30.334 30.941" style="enable-background:new 0 0 30.334 30.941;"
	 xml:space="preserve">
<g id="Layer_18">
	<path style="fill:#2CA3D7;stroke:#FFFFFF;stroke-width:0.1417;" d="M28.406,6.806l-2.023-4.963
		c-0.145,0.225-0.256,0.383-0.316,0.443c-0.334,0.333-1.709-0.5-3-0.166c-1.293,0.333-2.293-0.125-3.543-0.75
		s-5.332,0.166-5.875,0.958c-0.541,0.792-1.916,0.792-3.166,0.292s-2.875-1.25-5.166-1.459C3.174,0.967,1.451,0.661,1.062,0.146
		c-0.09,0.239-0.176,0.475-0.258,0.701C0.109,2.758,1.326,3.28,0.457,4.323s0,2.259,0,4.171c0,1.32,0,13.992,0,21.709h17.191
		c0,0,0.5-0.334,1-0.667s1.334,0.5,1.334,0.5h3.666c0,0,0.668,0.834,1.5,0.834c0.834,0,0.334-1.334,1.668-1.334c1.332,0,1-2,1.832-2
		c0.834,0,0.668,0.166,1.5-1c0.025-0.035,0.066-0.08,0.094-0.117c-0.062-0.361-0.07-0.74-0.01-1.133
		c0.209-1.333-0.709-1.25-1.291-3.125c-0.584-1.875-2.918-4.666-3-5.75c-0.084-1.083-1.375-1.708-1.334-2.875
		c0.041-1.166-0.625-1.291-1.916-3.125c-1.293-1.833-1.668-5.041-1.293-5.166s1.459,2.708,1.875,3.625
		c0.416,0.916,1.834,3.708,2.834,3.708s1.375-4.208,1.709-4c0.029,0.019,0.051,0.065,0.07,0.122l0.107-0.763L28.406,6.806z"/>
</g>
<g id="Layer_1">
</g>
</svg>
