<?xml version="1.0" encoding="iso-8859-1"?>
<!-- Generator: Adobe Illustrator 16.2.1, SVG Export Plug-In . SVG Version: 6.00 Build 0)  -->
<!DOCTYPE svg PUBLIC "-//W3C//DTD SVG 1.1//EN" "http://www.w3.org/Graphics/SVG/1.1/DTD/svg11.dtd">
<svg version="1.1" xmlns="http://www.w3.org/2000/svg" xmlns:xlink="http://www.w3.org/1999/xlink" x="0px" y="0px"
	 width="51.829px" height="53.481px" viewBox="0 0 51.829 53.481" style="enable-background:new 0 0 51.829 53.481;"
	 xml:space="preserve">
<g id="Layer_7">
	<path style="fill:#F4CE57;stroke:#FFFFFF;stroke-width:0.1417;" d="M47.383,35.251c-1.375-0.75-1.938-10.188-1.25-10.438
		c0.09-0.032,0.176,0.067,0.262,0.263l-0.137-2.138c0,0-0.08-0.016-0.186-0.059c-0.221-0.09-0.564-0.308-0.564-0.816
		c0-0.75,0.625-0.812,0.625-0.812s-0.125-1.562,0.562-1.812c0.139-0.05,0.248-0.148,0.344-0.267
		c0.385-0.474,0.469-1.394,0.469-2.046c0-0.812,0.188-1.75,0.5-2.438s0.188-1.625,0.688-2s0.438-1.375,1.062-1.562
		s1.125-0.438,1.188-0.812s0.812-0.875,0.812-1.438S50.82,8.188,50.82,7.5s0.25-2.438,0.25-2.438s0.025-0.009,0.041-0.016
		c-1.346-1.232-2.9-2.51-3.256-2.746c-0.521-0.349-1.393,0.349-1.393,0.349s-0.871-0.872-1.568-0.175s-1.742,0-1.742,0
		s-0.871-0.522-1.221-1.394c-0.141-0.355-0.402-0.563-0.73-0.735l0.045,0.112L39.16,0.806c0,0-2.605-1.391-3.127-0.348
		s-1.043,0.348-2.26,0.348s-2.26,0.521-2.955,0.869s-1.738-0.348-2.26,0c-0.52,0.348-0.869,1.91-0.869,1.91l-5.386-1.042
		c0,0-1.043-1.563-2.26-1.563s-2.955,2.259-2.955,2.259v1.889c0.209,1.136-0.057,2.32-0.418,2.924
		c-0.523,0.871-1.047,1.219-1.047,2.961s-2.09,4.531-2.09,5.924c0,1.395-2.439,2.266-2.439,3.137s-0.174,2.787-0.174,4.704
		s-1.047,0.349-1.047,2.091c0,1.743-0.871,0.697-1.742,1.569c-0.871,0.871-1.219,1.045-1.219,0.174c0-0.872-1.22-1.045-2.266-0.174
		c-1.045,0.871-1.394,0-1.916-0.174c-0.289-0.097-1.482,0.605-2.641,1.4c0.521,1.074,0.791,2.156,1.002,3.109
		c0.02,0.09,0.046,0.187,0.072,0.283c0.615-0.435,1.238-0.816,1.594-0.867c0.875-0.125,9.125,0,9.125,0s0.75,1.25,0.5,2.375
		s0.5,0.625,1.125,2.125s1.125,2.125,2.375,1.75s2.75-0.625,3.25-0.5s0.375-2.125,1.125-2.5s2.25,0,2.25,0s0.125,0.625,1.375,0.625
		s1.875-0.5,1.875,0.375s0.125,1.875,0.5,2.25s-1,3.5-0.375,4s1.5,1.625,1.375,2.25s-0.5,2.125,0,2.25
		c0.5,0.125,0.625-0.75,1.5-0.75s1.625,0.125,2.5-0.25c0.287-0.123,0.543-0.077,0.762,0.029c0.451,0.219,0.738,0.721,0.738,0.721
		s0.25,0.875,0.75,0.625s1.875-0.625,1.75-0.125s0.375,1.625,0.875,1.375s1.75,0.75,2.375,0.75s1.25,0,1.25-0.375s0.75-1,1-0.5
		s0.875,1.625,1.5,1.625s2.125,0,2.125,0.5s0.5,1.875,1.125,2.375s2,0,2,0s0.5-0.375,0.5-1.25s0-2-0.375-2s-1,0.875-1.875,0.625
		s-1.5-2-1.875-2.25s0.625-1.875,0.625-2.625s0.625-2.875,0.125-3.125s-0.25-1,0.375-1.5s-0.25-1.875,0.75-1.875
		c0.939,0,2.85,0.101,3.393-0.505c0.037-0.04,0.084-0.073,0.107-0.12c0.07-0.139,0.129-0.287,0.182-0.435
		C48.797,37.076,48.156,35.673,47.383,35.251z"/>
</g>
<g id="Layer_1">
</g>
</svg>
