<?xml version="1.0" encoding="iso-8859-1"?>
<!-- Generator: Adobe Illustrator 16.2.1, SVG Export Plug-In . SVG Version: 6.00 Build 0)  -->
<!DOCTYPE svg PUBLIC "-//W3C//DTD SVG 1.1//EN" "http://www.w3.org/Graphics/SVG/1.1/DTD/svg11.dtd">
<svg version="1.1" xmlns="http://www.w3.org/2000/svg" xmlns:xlink="http://www.w3.org/1999/xlink" x="0px" y="0px" width="8.272px"
	 height="9.119px" viewBox="0 0 8.272 9.119" style="enable-background:new 0 0 8.272 9.119;" xml:space="preserve">
<g id="Layer_25">
	<path style="fill:#34BAEB;stroke:#FFFFFF;stroke-width:0.1417;" d="M7.893,6.196c0.125-0.562,0.5-1.125,0.188-1.625
		S7.705,3.509,7.705,2.884S6.08,0.071,5.455,0.071S4.017,0.634,3.33,0.509C2.643,0.384,2.08,0.134,2.017,0.821
		C1.975,1.29,0.896,2.244,0.088,2.929c0.157,0.324,0.301,0.663,0.41,1.039c0.667,2.291,1.292,2.75,2.25,3.541
		c0.434,0.359,1.28,0.895,2.254,1.51C5.24,8.57,5.469,8.211,5.643,8.071C6.268,7.571,7.768,6.759,7.893,6.196z"/>
</g>
<g id="Layer_1">
</g>
</svg>
