<?xml version="1.0" encoding="iso-8859-1"?>
<!-- Generator: Adobe Illustrator 16.2.1, SVG Export Plug-In . SVG Version: 6.00 Build 0)  -->
<!DOCTYPE svg PUBLIC "-//W3C//DTD SVG 1.1//EN" "http://www.w3.org/Graphics/SVG/1.1/DTD/svg11.dtd">
<svg version="1.1" xmlns="http://www.w3.org/2000/svg" xmlns:xlink="http://www.w3.org/1999/xlink" x="0px" y="0px"
	 width="19.947px" height="25.037px" viewBox="0 0 19.947 25.037" style="enable-background:new 0 0 19.947 25.037;"
	 xml:space="preserve">
<g id="Layer_15">
	<path style="fill:#FFF066;stroke:#FFFFFF;stroke-width:0.1417;" d="M5.446,23.531c0.522,0.174,0.871,1.045,1.916,0.174
		s2.266-0.697,2.266,0.174s0.348,0.697,1.219-0.174c0.871-0.871,1.742,0.174,1.742-1.568s1.047-0.174,1.047-2.091
		s0.174-3.833,0.174-4.704s2.439-1.742,2.439-3.137c0-1.393,2.09-4.182,2.09-5.924s0.523-2.09,1.047-2.961
		c0.361-0.604,0.627-1.788,0.418-2.924V0.42l-2.434-0.348L16.152,0.42L14.59,0.768c0,0,0.174,1.217-0.521,2.086
		s-0.869,2.781-0.869,2.781S10.071,4.07,9.201,4.244C8.831,4.318,7.416,4.297,5.916,4.248C5.774,5.41,5.62,6.773,5.62,7.152
		c0,0.697,1.917-0.696,2.788,0C9.279,7.85,9.104,8.896,8.059,9.418S7.71,11.16,8.582,11.684c0.871,0.522,0.697,1.567,0.697,2.961
		c0,1.395,0,3.137-0.872,3.311c-0.871,0.175-1.393-0.522-2.091-0.348c-0.697,0.174-0.871-1.742-1.568-1.742
		c-0.698,0-0.348,1.567-1.219,1.567c-0.871,0-2.266-0.175-1.743,1.22s1.046,2.266-0.349,2.266c-0.658,0-1.078,0.391-1.344,0.802
		c0.095,0.077,0.188,0.154,0.297,0.237c1.168,0.902,1.91,1.936,2.414,2.975C3.963,24.137,5.157,23.435,5.446,23.531z"/>
</g>
<g id="Layer_1">
</g>
</svg>
