<?xml version="1.0" encoding="iso-8859-1"?>
<!-- Generator: Adobe Illustrator 16.2.1, SVG Export Plug-In . SVG Version: 6.00 Build 0)  -->
<!DOCTYPE svg PUBLIC "-//W3C//DTD SVG 1.1//EN" "http://www.w3.org/Graphics/SVG/1.1/DTD/svg11.dtd">
<svg version="1.1" xmlns="http://www.w3.org/2000/svg" xmlns:xlink="http://www.w3.org/1999/xlink" x="0px" y="0px"
	 width="28.303px" height="46.929px" viewBox="0 0 28.303 46.929" style="enable-background:new 0 0 28.303 46.929;"
	 xml:space="preserve">
<g id="Layer_19">
	<path style="fill:#2CA3D7;stroke:#FFFFFF;stroke-width:0.1417;" d="M28.203,11.651L6.69,0.081L4.171,1.446
		c0.072,1.369,0.166,3.213,0.166,3.621c0,0.666,1.25,1.5,1.166,2.584c-0.082,1.082,0.834,1,0.5,2.166c-0.332,1.166-0.5,2.166-0.5,3
		s0.002,6.75-0.332,7s-4.25,4.166-4.5,5.667c-0.25,1.5-0.584,0.918-0.584,2.418c0,0.272-0.006,0.584-0.015,0.908
		c0.214,0.074,0.313,0.307,0.598,0.592c0.417,0.416,0.417,1.166,1.25,1.166s1.833,1.917,1.75,2.667s0.417,1.167,0.333,2.5
		c-0.083,1.333,0.75,3.25,1.167,3.5c0.416,0.25-0.168,0.5-1.167,0.417c-1-0.084-2.416-0.084-2.416,0.333s-0.417,1,0.666,2
		c1.084,1,2.001,1.333,2.333,2.417c0.334,1.083,0.75,2.083,1.084,2.333c0.332,0.25,1,0.166,1.582-0.667
		c0.584-0.833,1.252,0.75,1.834,0c0.584-0.75,2.584-0.666,3.084-0.916s2-0.918,2.5-1.334c0.5-0.416-0.584-1.084,0.166-1.5
		c0.75-0.416,3.083,0.334,4-0.833s2.334-2.417,2.75-2.833c0.416-0.417,0-0.751,0.584-1.334c0.582-0.583,1.75-1.25,2.332-0.916
		c0.129,0.073,0.303,0.102,0.488,0.108c-0.055-0.067-0.09-0.106-0.09-0.106l0.348-1.217c0,0-1.391-0.695-1.391-1.738
		s0.348-2.086-0.521-2.086s-1.043-0.869-0.348-1.564c0.695-0.694-1.043-2.085,0.174-2.085s0.35-1.911,1.217-2.085
		c0.869-0.174,1.043-0.869,1.043-1.739c0-0.869,1.912-1.391,2.434-1.564s0.348-2.955,0.348-2.955V11.651z"/>
</g>
<g id="Layer_1">
</g>
</svg>
