<?xml version="1.0" encoding="iso-8859-1"?>
<!-- Generator: Adobe Illustrator 16.2.1, SVG Export Plug-In . SVG Version: 6.00 Build 0)  -->
<!DOCTYPE svg PUBLIC "-//W3C//DTD SVG 1.1//EN" "http://www.w3.org/Graphics/SVG/1.1/DTD/svg11.dtd">
<svg version="1.1" xmlns="http://www.w3.org/2000/svg" xmlns:xlink="http://www.w3.org/1999/xlink" x="0px" y="0px"
	 width="15.632px" height="17.825px" viewBox="0 0 15.632 17.825" style="enable-background:new 0 0 15.632 17.825;"
	 xml:space="preserve">
<g id="Layer_17">
	<path style="fill:#F4CE57;stroke:#FFFFFF;stroke-width:0.1417;" d="M7.706,16.919c1.395,0,0.871-0.871,0.349-2.266
		s0.872-1.22,1.743-1.22c0.87,0,0.521-1.567,1.219-1.567c0.697,0,0.871,1.916,1.567,1.742c0.698-0.175,1.221,0.522,2.091,0.348
		c0.872-0.174,0.872-1.916,0.872-3.311c0-1.394,0.174-2.438-0.697-2.961c-0.872-0.523-1.567-1.743-0.522-2.266
		s1.22-1.568,0.348-2.266c-0.87-0.696-2.787,0.697-2.787,0c0-0.379,0.154-1.742,0.296-2.904c-2.017-0.064-4.188-0.178-4.188-0.178
		L7.474,0.22c0.123,2.044-0.115,3.631-0.115,3.631S4.222,4.025,3.524,4.025c-0.151,0-0.629,0.067-1.302,0.172
		C2.079,4.422,1.885,4.646,1.741,4.792C1.366,5.167,2.616,5.667,2.825,6.208C3.034,6.75,1.241,6.583,1.282,7.375
		c0.043,0.792-0.625,1.417-1.125,1.792s1.334,1.958,1.375,2.5c0.043,0.541,0.459,1.041,2.043,2.583
		c1.511,1.472,0.79,1.846,2.787,3.471C6.628,17.31,7.048,16.919,7.706,16.919z"/>
</g>
<g id="Layer_1">
</g>
</svg>
