<?xml version="1.0" encoding="iso-8859-1"?>
<!-- Generator: Adobe Illustrator 16.2.1, SVG Export Plug-In . SVG Version: 6.00 Build 0)  -->
<!DOCTYPE svg PUBLIC "-//W3C//DTD SVG 1.1//EN" "http://www.w3.org/Graphics/SVG/1.1/DTD/svg11.dtd">
<svg version="1.1" xmlns="http://www.w3.org/2000/svg" xmlns:xlink="http://www.w3.org/1999/xlink" x="0px" y="0px"
	 width="22.349px" height="19.792px" viewBox="0 0 22.349 19.792" style="enable-background:new 0 0 22.349 19.792;"
	 xml:space="preserve">
<g id="Layer_50">
	<path style="fill:#D2672C;stroke:#FFFFFF;stroke-width:0.1417;" d="M15.045,0.984l-0.414-0.911L12.213,0.15
		c-1.583,0.417-1.583,0.918-1.583,1.418s-1.5,1.666-2.584,2C6.963,3.901,5.795,6.4,5.129,6.734s-2.916-0.5-3.584-0.584
		C1.243,6.113,0.692,6.232,0.108,6.372c0.416,0.733,1.287,1.604,1.605,1.604c0.422,0,0.562,2.959,1.549,3.382
		s2.818,1.409,2.818,1.973s1.129,1.269,1.129,2.114s1.115,2,1.973,1.973c1.801-0.059,1.988,0.691,1.988,1.191s2.375,0,2.687,0.5
		c0.289,0.46,2.633,0.287,3.203,0.596c0.979-0.951,2.379-2.205,2.859-2.846c0.75-1,0.125-2.375,0.75-2.75s2-2,1.5-2.125
		s-0.125-1.375-0.875-2.125s0.875-1.125,0.75-2.5s0.25-4.125-0.125-4.375s-2.125-0.375-3.25-1.125S15.045,0.984,15.045,0.984z"/>
</g>
<g id="Layer_1">
</g>
</svg>
