<?xml version="1.0" encoding="iso-8859-1"?>
<!-- Generator: Adobe Illustrator 16.2.1, SVG Export Plug-In . SVG Version: 6.00 Build 0)  -->
<!DOCTYPE svg PUBLIC "-//W3C//DTD SVG 1.1//EN" "http://www.w3.org/Graphics/SVG/1.1/DTD/svg11.dtd">
<svg version="1.1" xmlns="http://www.w3.org/2000/svg" xmlns:xlink="http://www.w3.org/1999/xlink" x="0px" y="0px"
	 width="42.001px" height="32.753px" viewBox="0 0 42.001 32.753" style="enable-background:new 0 0 42.001 32.753;"
	 xml:space="preserve">
<g id="Layer_11">
	<path style="fill:#2CA3D7;stroke:#FFFFFF;stroke-width:0.1417;" d="M2.767,21.56c0.348,0.871,1.916,1.742,2.439,3.136
		c0.521,1.394,1.916,2.091,2.613,2.091c0.52,0,0.166,0.874-0.047,2.474c0.332,0.136,0.688,0.254,0.922,0.388
		c0.438,0.25,2.25,0,2.875,0.562s2.625,1.875,3.25,1.875s2.875,0.312,3.25,0.562s0.875-0.938,1.875-1.5s2.25-0.938,2.437-0.5
		s0.875,0.812,1.375,0.562c0.203-0.103,0.771-0.254,1.404-0.396c0.922-0.207,1.986-0.391,2.283-0.354
		c0.5,0.062,1.875-1.938,3.688-1.938s2.312,0.312,3.125-0.562s6.938-7.062,7.5-7.5s-0.375-0.625-1-0.625s-1.875-0.062-3.875-0.875
		s-5.125-1.875-5.688-2c-0.562-0.125-1.375-1.438-1.875-1.688s-1.5-2-1.75-2.562c-0.086-0.195,0.113-0.598,0.428-1.049
		c-0.611-0.577-0.92-0.734-1.328-0.461c-0.527,0.352-1.406,0.438-1.582,0.088c-0.176-0.352-0.527-1.67,0.088-2.373
		c0.615-0.702,1.406-2.02,1.406-2.02s-5.359-5.711-5.974-5.799s-2.371,0.176-2.811,0s-0.352-0.439-1.23,0s-1.23-0.263-1.756-0.702
		c-0.527-0.439-1.055-0.527-1.318,0.351c-0.264,0.879-0.439,1.318-0.879,0.879c-0.217-0.217-1.307-0.197-2.357-0.123
		c0,0.007,0.002,0.015,0.004,0.021c0.174,1.22-1.047,2.613-1.047,3.311S8.517,6.228,7.994,6.228S6.949,7.621,6.251,8.317
		c-0.697,0.697-0.174,2.267-0.871,2.789s-1.742,0.696-1.221,1.22c0.523,0.521-0.871,1.568-0.871,2.613
		c0,1.044-0.174,2.961-0.348,3.136c-0.174,0.174-2.266-0.35-2.266,0.521s-0.871,0.871-0.521,1.568
		C0.501,20.862,2.417,20.688,2.767,21.56z"/>
</g>
<g id="Layer_1">
</g>
</svg>
